<svg xmlns="http://www.w3.org/2000/svg" version="1.1" xmlns:xlink="http://www.w3.org/1999/xlink" xmlns:svgjs="http://svgjs.dev/svgjs" width="128" height="128" viewBox="0 0 128 128"><g transform="matrix(0.8046875,0,0,0.8046875,12.617798164032244,8.357379810855264)"><svg viewBox="0 0 87 95" data-background-color="#ffffff" preserveAspectRatio="xMidYMid meet" height="139" width="128" xmlns="http://www.w3.org/2000/svg" xmlns:xlink="http://www.w3.org/1999/xlink"><g id="tight-bounds" transform="matrix(1,0,0,1,-0.09949942010490531,-0.24049999999999727)"><svg viewBox="0 0 87.19899884020981 95.481" height="95.481" width="87.19899884020981"><g><svg viewBox="0 0 87.19899884020981 95.481" height="95.481" width="87.19899884020981"><g><svg viewBox="0 0 87.19899884020981 95.481" height="95.481" width="87.19899884020981"><g id="textblocktransform"><svg viewBox="0 0 87.19899884020981 95.481" height="95.481" width="87.19899884020981" id="textblock"><g><svg viewBox="0 0 87.19899884020981 95.481" height="95.481" width="87.19899884020981"><g><svg viewBox="0 0 87.19899884020981 95.481" height="95.481" width="87.19899884020981"><g><svg xmlns="http://www.w3.org/2000/svg" xmlns:xlink="http://www.w3.org/1999/xlink" version="1.1" x="0" y="0" viewBox="6.461892441330962 1.8618924413309634 87.7077830104872 96.03810755866905" enable-background="new 0 0 100 100" xml:space="preserve" height="95.481" width="87.19899884020981" class="icon-icon-0" data-fill-palette-color="accent" id="icon-0"><path d="M26.9 15.4l-5.8-9.1c-0.6-0.9-1.8-1.2-2.7-0.6-0.9 0.6-1.2 1.8-0.6 2.7l5.8 9.1c0.4 0.6 1 0.9 1.7 0.9 0.4 0 0.7-0.1 1.1-0.3C27.2 17.6 27.5 16.3 26.9 15.4z" fill="#000000" data-fill-palette-color="accent"></path><path d="M19.6 34.3l-9.1 5.8c-0.9 0.6-1.2 1.8-0.6 2.7 0.4 0.6 1 0.9 1.7 0.9 0.4 0 0.7-0.1 1.1-0.3l9.1-5.8c0.9-0.6 1.2-1.8 0.6-2.7C21.8 34 20.6 33.8 19.6 34.3z" fill="#000000" data-fill-palette-color="accent"></path><path d="M45 22.6c0.4 0 0.7-0.1 1.1-0.3l9.1-5.8c0.9-0.6 1.2-1.8 0.6-2.7-0.6-0.9-1.8-1.2-2.7-0.6l-9.1 5.8c-0.9 0.6-1.2 1.8-0.6 2.7C43.7 22.3 44.3 22.6 45 22.6z" fill="#000000" data-fill-palette-color="accent"></path><path d="M35 16.5c0.1 0 0.3 0 0.4 0 0.9 0 1.7-0.6 1.9-1.6l2.4-10.6c0.2-1.1-0.4-2.1-1.5-2.4-1.1-0.2-2.1 0.4-2.4 1.5l-2.4 10.6C33.2 15.2 33.9 16.2 35 16.5z" fill="#000000" data-fill-palette-color="accent"></path><path d="M19 26.9c0.9 0 1.7-0.6 1.9-1.6 0.2-1.1-0.4-2.1-1.5-2.4L8.9 20.7c-1.1-0.2-2.1 0.4-2.4 1.5-0.2 1.1 0.4 2.1 1.5 2.4l10.6 2.3C18.7 26.9 18.9 26.9 19 26.9z" fill="#000000" data-fill-palette-color="accent"></path><path d="M94.1 82.8c-0.3-1.3-0.3-3.4-0.3-5.8 0-7.7 0.1-19.4-8.8-33.4 0 0 0 0 0 0l-5.4-8.5c-0.9-1.5-2.4-2.5-4.1-2.9-1.7-0.4-3.5-0.1-5 0.9 0 0-0.1 0-0.1 0.1-0.9 0.6-1.6 1.3-2.1 2.2-0.8-0.6-1.7-1-2.6-1.2-1.8-0.4-3.6-0.1-5.1 0.9-0.1 0-0.1 0.1-0.2 0.1-1.1 0.8-2 1.8-2.5 3.1-1.9-0.9-4.2-0.8-6.2 0.3-0.1 0-0.2 0.1-0.3 0.1-0.8 0.5-1.5 1.2-2 2L40.8 27c-1-1.6-2.7-2.8-4.6-3.2-1.9-0.4-3.9-0.1-5.5 1 0 0 0 0-0.1 0.1 0 0-0.1 0-0.1 0-1.6 1-2.8 2.7-3.2 4.6-0.4 1.9-0.1 3.9 1 5.5l14.6 22.9c-0.7 0.3-1.4 0.8-2.1 1.3-0.3 0.2-0.7 0.5-1.1 0.7 0 0 0 0 0 0-1.7 1.1-2.9 2.8-3.4 4.8-0.4 2-0.1 4.1 1 5.8l5.1 8c0.1 0.1 0.2 0.3 0.3 0.4 6.2 8.5 13.7 10.8 18.9 12.2 1.4 0.4 2.6 0.8 3.5 1.2 0.2 0.1 0.3 0.1 0.5 0.1 0 0 0 0 0 0 2.4 0.5 3.1 1.7 4.4 3.9l0.5 0.7c0.4 0.6 1 0.9 1.7 0.9 0.4 0 0.7-0.1 1.1-0.3 0.9-0.6 1.2-1.8 0.6-2.7l-0.4-0.7c-1.4-2.3-2.9-4.8-6.9-5.7 0 0 0 0 0 0-1.1-0.5-2.3-0.8-3.8-1.2C57.6 85.8 50.5 83.7 45 75c0 0 0 0 0 0l-4.3-6.7c-0.5-0.8-0.7-1.8-0.5-2.8 0.2-1 0.8-1.8 1.6-2.3 0 0 0 0 0 0 0.4-0.3 0.8-0.5 1.1-0.8 0.7-0.5 1.7-1.2 1.9-1.2 0 0 0.1 0.1 0.4 0.4l6 9.4c0.4 0.6 1 0.9 1.7 0.9 0.4 0 0.7-0.1 1.1-0.3 0.9-0.6 1.2-1.8 0.6-2.7l-5.9-9.4c0 0 0 0 0 0 0 0 0 0 0 0l-17-26.7c-0.5-0.8-0.6-1.6-0.4-2.5 0.2-0.9 0.7-1.6 1.5-2.1 0 0 0 0 0.1-0.1 0 0 0.1 0 0.1 0 0.8-0.5 1.6-0.6 2.5-0.4 0.9 0.2 1.6 0.7 2.1 1.5l12 18.9c0 0 0 0 0 0 0 0 0 0 0 0l5.6 8.9c0.4 0.6 1 0.9 1.7 0.9 0.4 0 0.7-0.1 1.1-0.3 0.9-0.6 1.2-1.8 0.6-2.7l-5.6-8.9c-0.8-1.3-0.4-3.1 0.9-3.9 0 0 0 0 0 0 1.3-0.8 3.1-0.4 3.9 0.9l5.6 8.9c0.4 0.6 1 0.9 1.7 0.9 0.4 0 0.7-0.1 1.1-0.3 0.9-0.6 1.2-1.8 0.6-2.7l-4.7-7.4c0 0 0 0 0 0-0.4-0.6-0.5-1.4-0.4-2.1 0.2-0.7 0.6-1.4 1.2-1.8 0 0 0 0 0 0 0.6-0.4 1.4-0.5 2.1-0.4 0.7 0.2 1.4 0.6 1.8 1.2l1.9 2.9c0 0 0 0 0 0 0 0 0 0 0 0l3.8 5.9c0.4 0.6 1 0.9 1.7 0.9 0.4 0 0.7-0.1 1.1-0.3 0.9-0.6 1.2-1.8 0.6-2.7L71.8 40c0 0 0 0 0 0-0.4-0.6-0.5-1.3-0.3-2 0.2-0.7 0.6-1.3 1.1-1.6 0 0 0 0 0 0 0.6-0.4 1.3-0.5 2-0.3 0.7 0.2 1.3 0.6 1.6 1.1l5.4 8.5c8.3 13 8.2 24 8.2 31.3 0 2.8 0 5 0.4 6.8 0.2 0.9 1 1.5 1.9 1.5 0.2 0 0.3 0 0.5-0.1C93.7 84.9 94.4 83.8 94.1 82.8z" fill="#000000" data-fill-palette-color="accent"></path></svg></g></svg></g></svg></g></svg></g></svg></g></svg></g><defs></defs></svg><rect width="87.19899884020981" height="95.481" fill="none" stroke="none" visibility="hidden"></rect></g></svg></g></svg>