<svg id="e54c3ff4-5851-40e5-8d2e-4aea28cf6af0" data-name="Layer 2" xmlns="http://www.w3.org/2000/svg" viewBox="0 0 512 512"><path d="M144.22,364.31C196.84,381.2,256,343.48,256,343.48s-26.16-65.09-78.79-82S65.42,282.33,65.42,282.33,91.59,347.42,144.22,364.31Z" fill="#f39"/><path d="M173.57,372.7A99.67,99.67,0,0,1,143,368.12h0c-53.79-17.26-80.18-81.57-81.28-84.3A4,4,0,0,1,63.27,279c2.48-1.58,61.36-38.52,115.16-21.26s80.18,81.57,81.28,84.3a4,4,0,0,1-1.56,4.87C256.14,348.14,217,372.7,173.57,372.7Zm-28.13-12.2c43.7,14,93.07-11.56,105.47-18.65-6-13-31.22-62.52-74.92-76.54S82.91,276.88,70.51,284c6,13,31.22,62.52,74.93,76.54Z" fill="#181028"/><path d="M152.45,296.5c33.46,44,103.55,47,103.55,47s15.85-68.34-17.6-112.33-103.55-47-103.55-47S119,252.51,152.45,296.5Z" fill="#db2188"/><path d="M256,347.49h-.17c-2.94-.12-72.36-3.58-106.56-48.56s-19-112.79-18.31-115.66a4,4,0,0,1,4.06-3.09c2.94.13,72.37,3.58,106.56,48.56s19,112.79,18.32,115.66A4,4,0,0,1,256,347.49ZM138.09,188.42c-2.55,14.05-10.24,69.13,17.55,105.66h0c27.78,36.54,82.9,43.85,97.13,45.15,2.54-14.05,10.23-69.13-17.55-105.66S152.31,189.72,138.09,188.42Z" fill="#181028"/><path d="M310,243.41c0,55.27-54,100.07-54,100.07s-54-44.8-54-100.07,54-100.07,54-100.07S310,188.14,310,243.41Z" fill="#f39"/><path d="M256,347.49a4,4,0,0,1-2.55-.93C251.18,344.68,198,299.91,198,243.41s53.17-101.27,55.44-103.15a4,4,0,0,1,5.1,0c2.27,1.88,55.44,46.65,55.44,103.15s-53.17,101.27-55.44,103.15A4,4,0,0,1,256,347.49Zm0-198.81c-10.53,9.64-50,48.83-50,94.73s39.45,85.1,50,94.73c10.53-9.63,50-48.83,50-94.73S266.54,158.31,256,148.68Z" fill="#181028"/><path d="M359.55,296.5c-33.46,44-103.55,47-103.55,47s-15.85-68.34,17.6-112.33,103.55-47,103.55-47S393,252.51,359.55,296.5Z" fill="#db2188"/><path d="M256,347.49a4,4,0,0,1-3.9-3.1c-.66-2.87-15.88-70.69,18.32-115.66S374,180.3,377,180.17a4,4,0,0,1,4.06,3.09c.67,2.87,15.89,70.69-18.31,115.66h0c-34.2,45-103.62,48.44-106.56,48.56ZM373.91,188.42c-14.22,1.3-69.34,8.61-97.13,45.15s-20.09,91.61-17.55,105.66c14.23-1.3,69.35-8.61,97.13-45.15h0C384.15,257.55,376.46,202.47,373.91,188.42Z" fill="#181028"/><path d="M367.78,364.31C315.16,381.2,256,343.48,256,343.48s26.16-65.09,78.79-82,111.79,20.83,111.79,20.83S420.41,347.42,367.78,364.31Z" fill="#f39"/><path d="M338.43,372.7c-43.43,0-82.57-24.56-84.58-25.84a4,4,0,0,1-1.56-4.87c1.1-2.73,27.48-67,81.28-84.3S446.25,277.37,448.73,279a4,4,0,0,1,1.56,4.87c-1.1,2.73-27.49,67-81.28,84.3h0A99.67,99.67,0,0,1,338.43,372.7Zm-77.34-30.85c12.4,7.09,61.77,32.67,105.47,18.65s69-63.56,74.93-76.54c-12.39-7.08-61.77-32.68-105.48-18.65S267.05,328.88,261.09,341.85Zm106.69,22.46h0Z" fill="#181028"/></svg>