<svg id="be453927-ac22-48be-8d4c-f4fe2e59e7d1" data-name="Layer 2" xmlns="http://www.w3.org/2000/svg" viewBox="0 0 512 512"><path d="M264.37,412.43C183,418.55,96.16,358.93,95.89,272.75c.32-72.11,68.25-138.64,141-133.46,11.81.89,64.85,17.55,49.29,59-4.92,13.13-11.12,28.42-7,42.57,2.28,6.84,8.39,11.45,14.48,14.81,14,7.31,30.08,8.52,45.45,10.92,19.07,2.79,44.7,6.39,50.32,28.3,8.37,40.21-17.6,77-51.58,96.06C315.88,403.78,289.37,410.92,264.37,412.43Z" fill="#f4d0b8"/><path d="M334.49,374.55c-21.91,12.81-48.41,19.95-73.41,21.46C190.34,401.32,115.47,357,96.94,288.64c10.09,77.5,91.17,129.52,167.43,123.79,25-1.51,51.51-8.65,73.41-21.46,34-19.06,60-55.85,51.58-96.06a30,30,0,0,0-1.82-5.09C389.44,325.51,365.24,357.29,334.49,374.55Z" fill="#c69081"/><ellipse cx="189.73" cy="203.71" rx="32.89" ry="22.67" transform="translate(-70.98 106.11) rotate(-26.51)" fill="#3fa4ef"/><ellipse cx="149.09" cy="287.38" rx="22.67" ry="32.89" transform="translate(-22.87 13.07) rotate(-4.66)" fill="#ff3943"/><ellipse cx="214.88" cy="352.72" rx="22.67" ry="32.89" transform="translate(-187.45 446.06) rotate(-71.71)" fill="#fcb23a"/><ellipse cx="308.84" cy="338.14" rx="32.89" ry="22.67" transform="translate(-145.9 283.96) rotate(-40.8)" fill="#e233a3"/><path d="M252.75,416.87A172.9,172.9,0,0,1,137,371.63c-29-26.79-45-61.9-45.1-98.86.16-36.6,17-73.14,46.34-100.29,28.15-26.1,64.2-39.65,98.89-37.18,8.56.64,37.42,8.91,49.93,28.51,6.82,10.67,7.77,22.75,2.83,35.91l-.67,1.76c-4.59,12.18-9.79,26-6.28,38.21,1.56,4.59,5.68,8.69,12.59,12.5,11,5.72,23.82,7.54,36.26,9.31,2.64.38,5.27.75,7.88,1.16l.39.06c19.81,2.9,46.94,6.87,53.19,31.2a1.16,1.16,0,0,0,0,.18c4.12,19.78.53,40.11-10.37,58.79-9.72,16.64-25.05,31.4-43.17,41.57-21.39,12.51-48.08,20.33-75.1,22Q258.72,416.87,252.75,416.87ZM229,143c-30.12,0-60.84,12.64-85.32,35.33C116,204,100,238.42,99.89,272.77c.1,34.69,15.21,67.72,42.53,93,32.46,30,77.94,46,121.65,42.69h.06c25.79-1.56,51.23-9,71.63-20.92,30.67-17.21,57.87-52.21,49.7-91.7-5-19.09-28-22.47-46.57-25.19l-.43-.06c-2.61-.41-5.2-.78-7.81-1.15-13.1-1.86-26.65-3.79-38.91-10.18-8.88-4.9-14.22-10.48-16.42-17.1l-.05-.14c-4.29-14.8,1.42-30,6.46-43.34l.66-1.75c4-10.68,3.3-20.36-2.08-28.79-11-17.22-37.31-24.35-43.77-24.84Q232.78,143,229,143Z" fill="#181028"/><path d="M180.71,232.75a37,37,0,0,1-5.2-.36c-8.82-1.24-15.49-5.58-18.8-12.22s-2.76-14.57,1.55-22.36c4-7.31,11-13.69,19.56-18,18.2-9.08,38.35-5.76,44.92,7.4h0c3.31,6.63,2.76,14.57-1.55,22.36-4,7.31-11,13.69-19.56,18A47.43,47.43,0,0,1,180.71,232.75Zm18-50A39.43,39.43,0,0,0,181.39,187c-7.14,3.56-12.87,8.78-16.13,14.68-3,5.42-3.49,10.72-1.39,14.92s6.63,7,12.76,7.87c6.68.95,14.29-.49,21.43-4.06s12.87-8.77,16.13-14.68c3-5.41,3.49-10.71,1.39-14.92C212.93,185.5,206.46,182.71,198.74,182.71Z" fill="#181028"/><path d="M150.44,324.21c-6.8,0-13.32-3.44-18.53-9.82s-8.62-15.29-9.4-24.85,1.08-18.8,5.24-26c4.44-7.71,10.95-12.29,18.34-12.9s14.55,2.87,20.18,9.76c5.28,6.47,8.62,15.29,9.4,24.85s-1.08,18.8-5.25,26c-4.43,7.71-10.95,12.29-18.33,12.9Q151.26,324.21,150.44,324.21Zm-2.74-65.67c-.32,0-.64,0-1,0-4.68.38-9,3.55-12.05,8.91-3.36,5.85-4.86,13.45-4.21,21.4s3.36,15.22,7.62,20.44c3.92,4.79,8.66,7.23,13.34,6.84s9-3.55,12.05-8.91c3.36-5.85,4.86-13.45,4.21-21.4s-3.36-15.22-7.62-20.44C156.43,261,152.07,258.54,147.7,258.54Z" fill="#181028"/><path d="M222,380.6A49.51,49.51,0,0,1,206.51,378c-19.32-6.38-31.28-22.94-26.66-36.9h0c2.32-7,8.31-12.29,16.85-14.78,8-2.34,17.44-2,26.55,1,19.31,6.38,31.27,22.93,26.66,36.89-2.33,7-8.31,12.29-16.86,14.79A39.9,39.9,0,0,1,222,380.6Zm-14.14-47.77A31.51,31.51,0,0,0,199,334c-5.95,1.73-10,5.15-11.5,9.61h0c-3.18,9.61,6.7,21.88,21.57,26.79,7.58,2.51,15.32,2.85,21.79,1,5.94-1.74,10-5.15,11.5-9.62,3.18-9.6-6.7-21.87-21.57-26.79A41.38,41.38,0,0,0,207.81,332.83Zm-24.16,9.57h0Z" fill="#181028"/><path d="M298.55,369.65c-7.29,0-13.47-2.57-17.64-7.4h0c-4.84-5.61-6.27-13.44-4-22.06,2.11-8.07,7.27-16,14.53-22.24,15.4-13.29,35.74-15.05,45.35-3.91,4.85,5.61,6.27,13.44,4,22-2.11,8.08-7.27,16-14.53,22.24s-15.82,10.21-24.12,11.12A34.24,34.24,0,0,1,298.55,369.65Zm20.57-55c-7,0-15.42,3.23-22.48,9.33-6.05,5.22-10.31,11.68-12,18.2-1.56,6-.73,11.25,2.34,14.81h0c3.07,3.56,8.16,5.15,14.31,4.48,6.7-.73,13.72-4,19.76-9.23s10.31-11.68,12-18.2c1.56-6,.73-11.25-2.34-14.81C328,316.17,323.89,314.68,319.12,314.68Z" fill="#181028"/><path d="M430.72,308.67a35.94,35.94,0,0,0-6.87-14A47.33,47.33,0,0,0,411.6,284a33.91,33.91,0,0,0-7.7-3.64,20.83,20.83,0,0,0-6-1l0-.06c-2.37-4.78-4.9-9.46-7.56-14.08-6.67-11.56-14-22.72-21.61-33.66-11.82-16.91-24.43-33.22-37.66-49.05-12.24-14.65-25-28.85-38.47-42.36-8-8-16.22-15.76-24.94-23a157.46,157.46,0,0,0-14.26-10.67,62.78,62.78,0,0,0-8.51-4.77,24.21,24.21,0,0,0-5.19-1.75,9.63,9.63,0,0,0-3.51-.1,4.55,4.55,0,0,0-3.52,2.71A6.48,6.48,0,0,0,232,105a29.64,29.64,0,0,0,.06,3.53,35.11,35.11,0,0,0,1.66,7.37,92.65,92.65,0,0,0,3.71,9.67,214.39,214.39,0,0,0,10.38,20.17c6.73,11.71,14.12,23,21.87,34.07a732.14,732.14,0,0,0,50.55,64c10.55,12,21.49,23.57,33,34.61,7,6.67,14.14,13.11,21.73,19.08l.09.06a20.39,20.39,0,0,0,.37,10.23,35.74,35.74,0,0,0,3.95,9,29.71,29.71,0,0,0,10.8,10.87,38.08,38.08,0,0,0,5.28,2.51c2.73,1.07,5.54,1.89,8.35,2.72,3,.88,6,1.76,8.93,2.87a45.84,45.84,0,0,1,11.95,6.53c.19.15.4.27.61.41a3.72,3.72,0,0,0,.77-1.25,56.07,56.07,0,0,0,5.37-17.65A41.31,41.31,0,0,0,430.72,308.67Z" fill="#5e698e"/><path d="M411.6,284a33.91,33.91,0,0,0-7.7-3.64,21.1,21.1,0,0,0-4.94-1l-24.37,22.19a23.63,23.63,0,0,0,.86,6.27,31.89,31.89,0,0,0,2,5.26l8.07,11.23a27.94,27.94,0,0,0,4.72,3.4,38.08,38.08,0,0,0,5.28,2.51c2.73,1.07,5.54,1.89,8.35,2.72,3,.88,6,1.76,8.93,2.87a45.84,45.84,0,0,1,11.95,6.53c.19.15.4.27.61.41a3.72,3.72,0,0,0,.77-1.25,56.07,56.07,0,0,0,5.37-17.65,41.31,41.31,0,0,0-.74-15.15,35.94,35.94,0,0,0-6.87-14A47.33,47.33,0,0,0,411.6,284Z" fill="#232938"/><path d="M399.56,279.37c-.55-.05-1.11-.09-1.66-.1l0-.06c-2.37-4.78-4.9-9.46-7.56-14.08-5.09-8.82-10.55-17.4-16.24-25.84L341,266.18c4,4.14,8.11,8.24,12.28,12.24,7,6.67,14.14,13.11,21.73,19.08l.09.06a14.81,14.81,0,0,0-.3,1.59Z" fill="#fcb23a"/><path d="M423.85,294.66A47.33,47.33,0,0,0,411.6,284a33.91,33.91,0,0,0-7.7-3.64,20.83,20.83,0,0,0-6-1l0-.06c-2.37-4.78-4.9-9.46-7.56-14.08-6.67-11.56-14-22.72-21.61-33.66-11.82-16.91-24.43-33.22-37.66-49.05-12.24-14.65-25-28.85-38.47-42.36-8-8-16.22-15.76-24.94-23a157.46,157.46,0,0,0-14.26-10.67,62.78,62.78,0,0,0-8.51-4.77,24.21,24.21,0,0,0-5.19-1.75,9.63,9.63,0,0,0-3.51-.1,4.55,4.55,0,0,0-3.52,2.71A6.48,6.48,0,0,0,232,105a29.64,29.64,0,0,0,.06,3.53c.06.71.17,1.4.29,2.09,2.08,1.08,4.09,2.3,6.06,3.58a157.46,157.46,0,0,1,14.26,10.67c8.72,7.22,16.95,15,24.94,23,13.49,13.51,26.23,27.71,38.47,42.35,13.23,15.84,25.84,32.14,37.66,49.06,7.64,10.93,14.94,22.1,21.6,33.66,2.67,4.62,5.2,9.3,7.56,14.08l0,.06a20.49,20.49,0,0,1,6,1,34.38,34.38,0,0,1,7.7,3.65,47.14,47.14,0,0,1,12.25,10.71,35.94,35.94,0,0,1,6.87,14,41.25,41.25,0,0,1,.74,15.14c-.23,1.82-.57,3.6-1,5.36a43.75,43.75,0,0,1,9.16,5.38c.19.15.4.27.61.41a3.72,3.72,0,0,0,.77-1.25,56.07,56.07,0,0,0,5.37-17.65,41.31,41.31,0,0,0-.74-15.15A35.94,35.94,0,0,0,423.85,294.66Z" fill="#3e4c72"/><path d="M423.85,294.66A47.33,47.33,0,0,0,411.6,284a33.91,33.91,0,0,0-7.7-3.64,21.6,21.6,0,0,0-2.33-.61l-.19,0a19.82,19.82,0,0,0-2.42-.33h0l-9.71,8.84a34.08,34.08,0,0,1,7.41,3.54,47.14,47.14,0,0,1,12.25,10.71,35.94,35.94,0,0,1,6.87,14,41.25,41.25,0,0,1,.74,15.14c-.23,1.82-.57,3.6-1,5.36h0c.49.22,1,.46,1.47.7l1.33.65,1.28.7c.53.3,1.06.61,1.58.94l1,.61c.85.56,1.69,1.15,2.51,1.78.19.15.4.27.61.41a3.72,3.72,0,0,0,.77-1.25,56.07,56.07,0,0,0,5.37-17.65,41.31,41.31,0,0,0-.74-15.15A35.94,35.94,0,0,0,423.85,294.66Z" fill="#181028"/><path d="M397.9,279.27l0-.06c-2.37-4.78-4.9-9.46-7.56-14.08q-2.26-3.9-4.61-7.75c-.52-.85-1-1.69-1.57-2.53-1.07-1.73-2.15-3.46-3.25-5.17-.6-1-1.21-1.9-1.82-2.84q-1.72-2.66-3.48-5.28c-.51-.76-1-1.52-1.51-2.27h0L361,249.9c5,7.52,9.83,15.16,14.34,23,2.67,4.62,5.2,9.3,7.56,14.08l0,.06a20.49,20.49,0,0,1,5.8,1l10.81-8.63C399,279.32,398.45,279.28,397.9,279.27Z" fill="#af731c"/><path d="M425.32,346.72a4,4,0,0,1-2.24-.68L423,346c-.24-.16-.47-.31-.69-.48a41.74,41.74,0,0,0-10.91-6c-2.85-1.07-5.8-1.94-8.65-2.78s-5.77-1.69-8.67-2.82a43.77,43.77,0,0,1-5.83-2.77A33.93,33.93,0,0,1,376,318.86a39.37,39.37,0,0,1-4.37-10,25.52,25.52,0,0,1-.86-9.61c-6.4-5.14-12.87-10.86-20.23-17.91-10.89-10.42-21.76-21.82-33.25-34.86a738.84,738.84,0,0,1-50.83-64.38c-8.61-12.3-15.83-23.54-22.06-34.38a218,218,0,0,1-10.57-20.54,97.4,97.4,0,0,1-3.87-10.09,39.08,39.08,0,0,1-1.83-8.2,31.89,31.89,0,0,1-.06-4,10.16,10.16,0,0,1,1-4,8.61,8.61,0,0,1,6.44-5,13.2,13.2,0,0,1,5,.12,27.9,27.9,0,0,1,6.06,2,66,66,0,0,1,9.05,5.07A157.85,157.85,0,0,1,270.18,114c8,6.63,16,14,25.23,23.24,12.8,12.83,25.46,26.77,38.7,42.62,13.76,16.47,26.5,33.07,37.87,49.33,8.51,12.17,15.64,23.28,21.79,34,2.46,4.26,4.66,8.31,6.69,12.31a26.29,26.29,0,0,1,4.65,1,37.72,37.72,0,0,1,8.6,4.07A50.69,50.69,0,0,1,427,292.17a40.21,40.21,0,0,1,7.63,15.56,45.51,45.51,0,0,1,.82,16.6,60,60,0,0,1-5.76,18.91l-.07.16a6.51,6.51,0,0,1-1.66,2.34A4,4,0,0,1,425.32,346.72ZM237.55,103.66a3.77,3.77,0,0,0-.69.06.6.6,0,0,0-.59.46,2.27,2.27,0,0,0-.25.9,25.54,25.54,0,0,0,0,3,32.37,32.37,0,0,0,1.49,6.53,89.26,89.26,0,0,0,3.56,9.26A208.19,208.19,0,0,0,251.3,143.7c6.11,10.63,13.2,21.68,21.67,33.78a733.06,733.06,0,0,0,50.28,63.68C334.59,254,345.31,265.27,356,275.53c7.89,7.55,14.7,13.53,21.43,18.82l.1.07a4,4,0,0,1,1.4,4.09,16.22,16.22,0,0,0,.36,8.25,31.63,31.63,0,0,0,3.52,8,25.77,25.77,0,0,0,9.35,9.45,36.81,36.81,0,0,0,4.75,2.25c2.57,1,5.34,1.81,8,2.6,2.86.84,6.1,1.78,9.23,3a51.82,51.82,0,0,1,9.64,4.76,51.15,51.15,0,0,0,3.67-13.5,37.4,37.4,0,0,0-.65-13.69,32.27,32.27,0,0,0-6.13-12.47,43,43,0,0,0-11.23-9.79,29.51,29.51,0,0,0-6.79-3.23,16.75,16.75,0,0,0-4.85-.85A4,4,0,0,1,394.3,281c-2.24-4.54-4.68-9.07-7.46-13.9-6-10.47-13-21.38-21.42-33.37C354.19,217.69,341.59,201.28,328,185c-13.09-15.67-25.59-29.44-38.23-42.1-9-9-16.86-16.27-24.66-22.73a152.11,152.11,0,0,0-13.9-10.4,57.81,57.81,0,0,0-8-4.47,19.87,19.87,0,0,0-4.32-1.47A7,7,0,0,0,237.55,103.66Z" fill="#181028"/><path d="M375.08,301.56a4,4,0,0,1-2.51-7.12l22.82-18.29a4,4,0,1,1,5,6.24l-22.82,18.29A4,4,0,0,1,375.08,301.56Z" fill="#181028"/><path d="M341,269.18a4,4,0,0,1-2.5-7.12l32.83-26.32a4,4,0,1,1,5,6.24L343.45,268.3A4,4,0,0,1,341,269.18Z" fill="#181028"/></svg>