<svg id="a8033b0b-65aa-41a8-be26-da054c2b0a43" data-name="Layer 2" xmlns="http://www.w3.org/2000/svg" viewBox="0 0 512 512"><path d="M325.1,221.65c0,51-30.34,71.38-67.76,71.38s-67.75-20.38-67.75-71.38S219.93,95.8,257.34,95.8,325.1,170.64,325.1,221.65Z" fill="#5cd83f"/><path d="M276.32,273.75c-37.42,0-67.75-20.38-67.75-71.39,0-32.41,12.25-74.44,30.79-100.78-28.69,18.49-49.77,77.55-49.77,120.07,0,51,30.34,71.38,67.75,71.38,24.47,0,45.9-8.71,57.81-29C304.15,270.7,290.77,273.75,276.32,273.75Z" fill="#378e1e"/><path d="M257.34,297c-20.79,0-38.3-6.1-50.64-17.64-14-13.11-21.11-32.53-21.11-57.74,0-26.14,7.76-58.25,20.25-83.81,14.51-29.69,32.8-46,51.5-46s37,16.35,51.51,46c12.49,25.56,20.25,57.67,20.25,83.81,0,25.21-7.11,44.63-21.12,57.74C295.65,290.93,278.13,297,257.34,297Zm0-197.23c-15.25,0-31.4,15.15-44.31,41.55-12,24.53-19.44,55.3-19.44,80.3,0,58.63,39.94,67.38,63.75,67.38s63.76-8.75,63.76-67.38c0-25-7.45-55.77-19.44-80.3C288.75,115,272.6,99.8,257.34,99.8Z" fill="#181028"/><path d="M257.34,354.37a4,4,0,0,1-4-4V164.24a4,4,0,0,1,8,0V350.37A4,4,0,0,1,257.34,354.37Z" fill="#181028"/><path d="M257.34,262.49a4,4,0,0,1-2.95-6.7l37.95-41.62a4,4,0,0,1,5.91,5.39L260.3,261.18A4,4,0,0,1,257.34,262.49Z" fill="#181028"/><path d="M257.34,220.86a4,4,0,0,1-2.82-1.17l-27.65-27.64a4,4,0,1,1,5.66-5.66L260.17,214a4,4,0,0,1-2.83,6.82Z" fill="#181028"/><path d="M424.9,275.59c0,45.14-26.84,63.17-59.95,63.17S305,320.73,305,275.59,331.84,164.24,365,164.24,424.9,230.46,424.9,275.59Z" fill="#5cd83f"/><path d="M381.74,321.7c-33.11,0-59.95-18-59.95-63.17,0-28.68,10.84-65.88,27.24-89.18-25.38,16.36-44,68.62-44,106.24,0,45.14,26.84,63.17,59.95,63.17,21.65,0,40.61-7.71,51.15-25.67C406.37,319,394.53,321.7,381.74,321.7Z" fill="#378e1e"/><path d="M365,342.76c-18.52,0-34.12-5.44-45.13-15.74C307.33,315.34,301,298,301,275.59c0-23.19,6.88-51.68,18-74.36,12.92-26.43,29.26-41,46-41s33.06,14.56,46,41c11.08,22.68,18,51.17,18,74.36,0,22.44-6.33,39.75-18.83,51.43C399.07,337.32,383.47,342.76,365,342.76Zm0-174.52c-13.32,0-27.46,13.3-38.8,36.51C315.57,226.39,309,253.54,309,275.59c0,51.49,35.05,59.17,55.95,59.17s55.95-7.68,55.95-59.17c0-22-6.57-49.2-17.15-70.84C392.41,181.54,378.27,168.24,365,168.24Z" fill="#181028"/><path d="M365,393.5a4,4,0,0,1-4-4V224.79a4,4,0,0,1,8,0V389.5A4,4,0,0,1,365,393.5Z" fill="#181028"/><path d="M365,312.19a4,4,0,0,1-3-6.69l33.59-36.83a4,4,0,1,1,5.91,5.39l-33.58,36.83A4,4,0,0,1,365,312.19Z" fill="#181028"/><path d="M365,275.36a4,4,0,0,1-2.83-1.17l-24.46-24.46a4,4,0,1,1,5.66-5.66l24.46,24.46a4,4,0,0,1-2.83,6.83Z" fill="#181028"/><path d="M302.68,363a39.47,39.47,0,0,0-74.13.35,26.62,26.62,0,0,0,4.59,52.84h27.51c.77,0,1.54,0,2.29-.11.91.07,1.82.11,2.74.11A41,41,0,0,0,270,416a27.41,27.41,0,0,0,3.53.24H301A26.62,26.62,0,0,0,302.68,363Z" fill="#5cd83f"/><path d="M285.54,347a26.36,26.36,0,0,1,7.92,1.73,39.39,39.39,0,0,0-10.66-7.56A39.27,39.27,0,0,1,285.54,347Z" fill="#378e1e"/><path d="M308.76,364.11a26.61,26.61,0,0,1-24.87,36.1H256.38a25.73,25.73,0,0,1-3.53-.24,38.24,38.24,0,0,1-4.31.24c-.92,0-1.83,0-2.74-.1-.75.06-1.51.1-2.29.1H216a26.69,26.69,0,0,1-7.74-1.14,26.62,26.62,0,0,0,24.87,17.13h27.51c.77,0,1.54,0,2.29-.11.91.07,1.82.11,2.74.11A41,41,0,0,0,270,416a27.41,27.41,0,0,0,3.53.24h51.06c14.71,0,3.07-11.92,3.07-26.62A26.62,26.62,0,0,0,308.76,364.11Z" fill="#378e1e"/><path d="M344.08,420.2H273.52A29.1,29.1,0,0,1,270,420a41.46,41.46,0,0,1-4.28.22c-.83,0-1.69,0-2.7-.1-.81.07-1.58.1-2.32.1H233.14a30.62,30.62,0,0,1-7.53-60.3,43.47,43.47,0,0,1,79.87-.62,30.66,30.66,0,0,1,26.17,30.3,4,4,0,1,1-8,0A22.65,22.65,0,0,0,302.43,367a4,4,0,0,1-3.5-2.6,35.47,35.47,0,0,0-66.62.31,4,4,0,0,1-3.08,2.59,22.62,22.62,0,0,0,3.91,44.9h27.51c.6,0,1.24,0,2-.09a4.26,4.26,0,0,1,.62,0c.94.07,1.73.1,2.45.1a37,37,0,0,0,3.89-.22,4.4,4.4,0,0,1,1,0,22.16,22.16,0,0,0,3,.21h70.56a4,4,0,0,1,0,8Z" fill="#181028"/><circle cx="281.07" cy="370.42" r="6.32" fill="#378e1e"/><circle cx="246.31" cy="380.17" r="6.2" fill="#378e1e"/><path d="M394.86,374a31.29,31.29,0,0,0-58.78.27,21.11,21.11,0,0,0,3.64,41.91h21.81a18.18,18.18,0,0,0,1.82-.09c.72.05,1.44.09,2.17.09a32.07,32.07,0,0,0,3.42-.19,21.58,21.58,0,0,0,2.8.19h21.81A21.11,21.11,0,0,0,394.86,374Z" fill="#5cd83f"/><path d="M381.27,361.34a21.15,21.15,0,0,1,6.29,1.37,31.59,31.59,0,0,0-8.46-6A30.44,30.44,0,0,1,381.27,361.34Z" fill="#378e1e"/><path d="M399.69,374.89A21.12,21.12,0,0,1,380,403.52H358.15a21.58,21.58,0,0,1-2.8-.19,32.07,32.07,0,0,1-3.42.19c-.73,0-1.45,0-2.17-.08s-1.2.08-1.82.08H326.13a21.11,21.11,0,0,1-6.14-.91,21.13,21.13,0,0,0,19.73,13.59h21.81a18.18,18.18,0,0,0,1.82-.09c.72.05,1.44.09,2.17.09a32.07,32.07,0,0,0,3.42-.19,21.58,21.58,0,0,0,2.8.19h21.81a21.11,21.11,0,0,0,6.14-41.31Z" fill="#378e1e"/><path d="M393.55,420.2H371.74a25.27,25.27,0,0,1-2.84-.17c-1.14.11-2.27.17-3.38.17-.66,0-1.35,0-2.14-.07s-1.26.07-1.85.07H339.72a25.11,25.11,0,0,1-6.58-49.35,35.3,35.3,0,0,1,64.52-.54,25.11,25.11,0,0,1-4.11,49.89ZM368.94,412a4.71,4.71,0,0,1,.53,0,16.27,16.27,0,0,0,2.27.16h21.81A17.11,17.11,0,0,0,394.62,378a4,4,0,0,1-3.51-2.6,27.3,27.3,0,0,0-51.27.24,4,4,0,0,1-3.08,2.58,17.11,17.11,0,0,0,3,34h21.81c.45,0,.94,0,1.48-.07a4.16,4.16,0,0,1,.61,0c.74.05,1.34.08,1.9.08a27.81,27.81,0,0,0,3-.17Z" fill="#181028"/><circle cx="377.73" cy="379.9" r="5.01" fill="#378e1e"/><circle cx="350.16" cy="387.63" r="4.92" fill="#378e1e"/><path d="M206.52,250.68c0,44.39-26.4,62.13-59,62.13s-59-17.74-59-62.13,26.4-109.53,59-109.53S206.52,206.29,206.52,250.68Z" fill="#5cd83f"/><path d="M164.07,296c-32.56,0-59-17.74-59-62.13,0-28.22,10.66-64.8,26.79-87.72-25,16.09-43.31,67.49-43.31,104.5,0,44.39,26.4,62.13,59,62.13,21.29,0,39.94-7.59,50.31-25.25C188.29,293.37,176.65,296,164.07,296Z" fill="#378e1e"/><path d="M147.56,316.81c-18.23,0-33.6-5.36-44.43-15.5-12.3-11.51-18.54-28.54-18.54-50.63,0-22.82,6.77-50.86,17.68-73.17,12.72-26,28.8-40.36,45.29-40.36s32.56,14.34,45.28,40.36c10.91,22.31,17.68,50.35,17.68,73.17,0,22.09-6.24,39.12-18.54,50.63C181.15,311.45,165.78,316.81,147.56,316.81Zm0-171.66c-13.08,0-27,13.08-38.11,35.87-10.4,21.29-16.86,48-16.86,69.66,0,50.58,34.44,58.13,55,58.13s55-7.55,55-58.13c0-21.68-6.46-48.37-16.86-69.66C174.51,158.23,160.63,145.15,147.56,145.15Z" fill="#181028"/><path d="M147.56,419.84a4,4,0,0,1-4-4V200.71a4,4,0,1,1,8,0V415.84A4,4,0,0,1,147.56,419.84Z" fill="#181028"/><path d="M147.55,286.74a4,4,0,0,1-3-6.69l33-36.23a4,4,0,1,1,5.91,5.39l-33,36.23A4,4,0,0,1,147.55,286.74Z" fill="#181028"/><path d="M147.56,250.52a4,4,0,0,1-2.83-1.18l-24.06-24.05a4,4,0,1,1,5.65-5.66l24.06,24.06a4,4,0,0,1-2.82,6.83Z" fill="#181028"/><path d="M161.32,375.15a30.47,30.47,0,0,0-57.22.26,20.55,20.55,0,0,0,3.55,40.79h21.23c.59,0,1.18,0,1.77-.08s1.4.08,2.11.08a30.68,30.68,0,0,0,3.33-.19,20.37,20.37,0,0,0,2.72.19H160a20.54,20.54,0,0,0,1.28-41.05Z" fill="#5cd83f"/><path d="M148.09,362.81a20.46,20.46,0,0,1,6.12,1.33,30.55,30.55,0,0,0-8.24-5.83A29.85,29.85,0,0,1,148.09,362.81Z" fill="#378e1e"/><path d="M166,376a20.55,20.55,0,0,1-19.2,27.87H125.58a20.37,20.37,0,0,1-2.72-.19,30.4,30.4,0,0,1-3.33.19c-.71,0-1.41,0-2.11-.08s-1.17.08-1.77.08H94.42a20.29,20.29,0,0,1-6-.89,20.54,20.54,0,0,0,19.2,13.23h21.23c.59,0,1.18,0,1.77-.08s1.4.08,2.11.08a30.68,30.68,0,0,0,3.33-.19,20.37,20.37,0,0,0,2.72.19H160A20.55,20.55,0,0,0,166,376Z" fill="#378e1e"/><path d="M160,420.2H138.81a26,26,0,0,1-2.76-.16c-1.12.1-2.22.16-3.29.16-.65,0-1.32,0-2.08-.07s-1.23.07-1.8.07H107.65A24.55,24.55,0,0,1,101.17,372a34.47,34.47,0,0,1,62.94-.53A24.55,24.55,0,0,1,160,420.2ZM136.09,412a3,3,0,0,1,.52,0,17,17,0,0,0,2.2.15H160a16.55,16.55,0,0,0,1-33.06,4,4,0,0,1-3.5-2.6,26.47,26.47,0,0,0-49.71.23,4,4,0,0,1-3.07,2.58,16.55,16.55,0,0,0,2.86,32.85h21.23c.43,0,.9,0,1.43-.07a3.11,3.11,0,0,1,.61,0c.71.05,1.3.07,1.84.07.93,0,1.91-.06,2.9-.16A3,3,0,0,1,136.09,412Z" fill="#181028"/><circle cx="144.64" cy="380.87" r="4.88" fill="#378e1e"/><circle cx="117.81" cy="388.39" r="4.78" fill="#378e1e"/><path d="M246.31,419.84H114.83a4,4,0,1,1,0-8H246.31a4,4,0,0,1,0,8Z" fill="#181028"/></svg>