<svg id="f11d6407-6c12-4bab-971b-e1c41d0b94dd" data-name="Layer 2" xmlns="http://www.w3.org/2000/svg" viewBox="0 0 512 512"><path d="M283.84,256.26l83.55-81.14a9.93,9.93,0,0,0-6.91-17.05h-209a9.93,9.93,0,0,0-6.91,17.05l83.55,81.14a50.36,50.36,0,0,1,15.26,36.1V367.2a9.9,9.9,0,0,1-4.48,8.3L219.3,388.39c-8.24,5.41-4.41,18.22,5.45,18.22h62.5c9.86,0,13.69-12.81,5.45-18.22L273.06,375.5a9.9,9.9,0,0,1-4.48-8.3V292.36A50.36,50.36,0,0,1,283.84,256.26Z" fill="#ddebed"/><circle cx="209.19" cy="153.81" r="25.95" fill="#67916a"/><path d="M209.25,183.75a29.93,29.93,0,1,1,14.74-3.9A30,30,0,0,1,209.25,183.75Zm-.09-51.9A22,22,0,1,0,228.28,143h0a22.05,22.05,0,0,0-19.12-11.11Z" fill="#181028"/><path d="M196.38,135.25a4,4,0,0,1-3.48-2l-11.11-19.55a4,4,0,0,1,7-4l11.11,19.55a4,4,0,0,1-1.5,5.45A3.91,3.91,0,0,1,196.38,135.25Z" fill="#181028"/><path d="M292.7,388.39,273.06,375.5a9.9,9.9,0,0,1-4.48-8.3V292.36a50.36,50.36,0,0,1,15.26-36.1l83.55-81.14a9.93,9.93,0,0,0-6.91-17.05H324.13l-60.08,68.42A32.37,32.37,0,0,0,256,247.86V366.12a35.33,35.33,0,0,0,14.82,28.77l16.43,11.72C297.11,406.61,300.94,393.8,292.7,388.39Z" fill="#8bbdc1"/><path d="M183.24,212.64s31.16-15.91,65.94,0,74.95,4.5,74.95,4.5L267.86,271a17.14,17.14,0,0,1-23.72,0Z" fill="#ffc05a"/><path d="M267.86,271l56.27-53.85s-25.65,7.27-53.7,2.08l-6.38,7.27A32.37,32.37,0,0,0,256,247.86v27.89A17.11,17.11,0,0,0,267.86,271Z" fill="#d3822a"/><path d="M287.25,410.61h-62.5A13.93,13.93,0,0,1,217.11,385l19.64-12.88a5.92,5.92,0,0,0,2.67-5V292.36a46.56,46.56,0,0,0-14-33.23L141.82,178a13.93,13.93,0,0,1,9.7-23.92h209a13.93,13.93,0,0,1,9.7,23.92l-83.55,81.14h0a46.56,46.56,0,0,0-14.05,33.23V367.2a5.92,5.92,0,0,0,2.67,5L294.89,385a13.93,13.93,0,0,1-7.64,25.57ZM151.52,162.07a5.93,5.93,0,0,0-4.13,10.18l83.55,81.14a54.58,54.58,0,0,1,16.48,39V367.2a13.9,13.9,0,0,1-6.29,11.65L221.5,391.73a5.92,5.92,0,0,0,3.25,10.88h62.5a5.92,5.92,0,0,0,3.25-10.88l-19.63-12.88a13.9,13.9,0,0,1-6.29-11.65V292.36a54.58,54.58,0,0,1,16.48-39h0l83.55-81.14a5.93,5.93,0,0,0-4.13-10.18Zm132.32,94.19h0Z" fill="#181028"/><path d="M270.82,200.37a3.87,3.87,0,0,1-1.93-.51,4,4,0,0,1-1.56-5.44l50.53-91a4,4,0,0,1,3.49-2h27.16a4,4,0,0,1,0,8h-24.8l-49.38,88.92A4,4,0,0,1,270.82,200.37Z" fill="#181028"/><path d="M229.8,194.06a4,4,0,0,1-3.49-2l-7.77-13.68a4,4,0,1,1,7-4l7.78,13.69a4,4,0,0,1-1.5,5.46A4.06,4.06,0,0,1,229.8,194.06Z" fill="#181028"/></svg>