<svg id="e9e5f461-8e8e-462b-a6a4-8704aa25ee0e" data-name="Layer 2" xmlns="http://www.w3.org/2000/svg" viewBox="0 0 512 512"><path d="M399.75,141.27a34,34,0,0,0-34,34,34,34,0,0,0-34-34,34,34,0,0,0,34-34A34,34,0,0,0,399.75,141.27Z" fill="#ddebed"/><circle cx="258.92" cy="279.32" r="127.29" fill="#ddebed"/><path d="M325.83,232.82h51.62a127.61,127.61,0,0,0-34-48.67H313.21Z" fill="#8bbdc1"/><polygon points="258.92 279.32 185.31 279.32 190.98 230.24 258.92 230.24 258.92 279.32" fill="#8bbdc1"/><path d="M258.92,279.32h73.62a0,0,0,0,1,0,0V316a12.43,12.43,0,0,1-12.43,12.43H258.92a0,0,0,0,1,0,0V279.32A0,0,0,0,1,258.92,279.32Z" fill="#8bbdc1"/><path d="M308,383.29a127.29,127.29,0,0,1-77.84-228A127.3,127.3,0,1,0,336.77,380,128.24,128.24,0,0,1,308,383.29Z" fill="#8bbdc1"/><path d="M258.92,410.61c-72.39,0-131.29-58.89-131.29-131.29S186.53,148,258.92,148s131.29,58.9,131.29,131.29A131.43,131.43,0,0,1,258.92,410.61Zm0-254.58A123.29,123.29,0,1,0,382.21,279.32,123.43,123.43,0,0,0,258.92,156Z" fill="#181028"/><path d="M258.92,410.61c-21.15,0-40.86-13.94-55.51-39.28-14.25-24.64-22.1-57.31-22.1-92s7.85-67.36,22.1-92C218.06,162,237.77,148,258.92,148s40.87,13.95,55.52,39.28c14.25,24.65,22.1,57.32,22.1,92s-7.85,67.37-22.1,92C299.79,396.67,280.08,410.61,258.92,410.61Zm0-254.58c-18.17,0-35.43,12.54-48.59,35.29-13.56,23.44-21,54.7-21,88s7.46,64.57,21,88c13.16,22.75,30.42,35.28,48.59,35.28s35.44-12.53,48.59-35.28c13.56-23.44,21-54.7,21-88s-7.47-64.56-21-88C294.36,168.57,277.1,156,258.92,156Z" fill="#181028"/><path d="M258.92,410.61a4,4,0,0,1-4-4V105.39a4,4,0,1,1,8,0V406.61A4,4,0,0,1,258.92,410.61Z" fill="#181028"/><path d="M386.21,283.32H131.63a4,4,0,0,1,0-8H386.21a4,4,0,0,1,0,8Z" fill="#181028"/><path d="M376.4,234.24H141.45a4,4,0,0,1,0-8h235a4,4,0,0,1,0,8Z" fill="#181028"/><path d="M376.4,332.41H141.45a4,4,0,0,1,0-8h235a4,4,0,0,1,0,8Z" fill="#181028"/><path d="M345.77,190.21H172.08a4,4,0,0,1,0-8H345.77a4,4,0,0,1,0,8Z" fill="#181028"/><path d="M345.77,376.44H172.08a4,4,0,1,1,0-8H345.77a4,4,0,0,1,0,8Z" fill="#181028"/><path d="M365.75,179.29a4,4,0,0,1-4-4,30.06,30.06,0,0,0-30-30,4,4,0,0,1,0-8,30,30,0,0,0,30-30,4,4,0,1,1,8,0,30,30,0,0,0,30,30,4,4,0,0,1,0,8,30,30,0,0,0-30,30A4,4,0,0,1,365.75,179.29Zm-17.05-38a38.31,38.31,0,0,1,17.05,17,38.24,38.24,0,0,1,17-17,38.17,38.17,0,0,1-17-17A38.24,38.24,0,0,1,348.7,141.27Z" fill="#181028"/><path d="M219.31,230.24a34,34,0,0,0-34,34,34,34,0,0,0-34-34,34,34,0,0,0,34-34A34,34,0,0,0,219.31,230.24Z" fill="#ddebed"/><path d="M185.31,268.25a4,4,0,0,1-4-4,30,30,0,0,0-30-30,4,4,0,0,1,0-8,30,30,0,0,0,30-30,4,4,0,1,1,8,0,30,30,0,0,0,30,30,4,4,0,0,1,0,8,30,30,0,0,0-30,30A4,4,0,0,1,185.31,268.25Zm-17-38a38.24,38.24,0,0,1,17,17,38.29,38.29,0,0,1,17-17,38.34,38.34,0,0,1-17-17.05A38.29,38.29,0,0,1,168.27,230.24Z" fill="#181028"/><path d="M180.27,359.84a34,34,0,0,0-34,34,34,34,0,0,0-34-34,34,34,0,0,0,34-34A34,34,0,0,0,180.27,359.84Z" fill="#ddebed"/><path d="M146.26,397.85a4,4,0,0,1-4-4,30,30,0,0,0-30-30,4,4,0,0,1,0-8,30,30,0,0,0,30-30,4,4,0,0,1,8,0,30,30,0,0,0,30,30,4,4,0,1,1,0,8,30,30,0,0,0-30,30A4,4,0,0,1,146.26,397.85Zm-17-38a38.27,38.27,0,0,1,17,17,38.32,38.32,0,0,1,17-17,38.34,38.34,0,0,1-17-17A38.29,38.29,0,0,1,129.22,359.84Z" fill="#181028"/><path d="M394.31,328.41A24.28,24.28,0,0,0,370,352.68a24.28,24.28,0,0,0-24.27-24.27A24.28,24.28,0,0,0,370,304.13,24.28,24.28,0,0,0,394.31,328.41Z" fill="#ddebed"/><path d="M370,356.68a4,4,0,0,1-4-4,20.29,20.29,0,0,0-20.27-20.27,4,4,0,0,1,0-8A20.3,20.3,0,0,0,366,304.13a4,4,0,0,1,8,0,20.3,20.3,0,0,0,20.27,20.28,4,4,0,0,1,0,8A20.29,20.29,0,0,0,374,352.68,4,4,0,0,1,370,356.68Zm-9.79-28.27A28.32,28.32,0,0,1,370,338.2a28.32,28.32,0,0,1,9.79-9.79,28.4,28.4,0,0,1-9.79-9.79A28.4,28.4,0,0,1,360.25,328.41Z" fill="#181028"/></svg>