<svg id="f092998e-d819-4027-9b6c-8e9e721c305a" data-name="Layer 2" xmlns="http://www.w3.org/2000/svg" viewBox="0 0 512 512"><path d="M323.15,289.56H188.85V256.83a37,37,0,0,1,37-37h60.24a37,37,0,0,1,37,37Z" fill="#3fa4ef"/><path d="M288.35,219.81h-64.7c-.41,0-.82,0-1.22,0A34.78,34.78,0,0,1,256,254.6v35h67.15v-35A34.79,34.79,0,0,0,288.35,219.81Z" fill="#25619e"/><path d="M236.72,219.81h38.56a0,0,0,0,1,0,0v4.54A19.28,19.28,0,0,1,256,243.63h0a19.28,19.28,0,0,1-19.28-19.28v-4.54A0,0,0,0,1,236.72,219.81Z" fill="#f9caaa"/><path d="M256,247.63a23.31,23.31,0,0,1-23.28-23.28v-4.54a4,4,0,0,1,4-4h38.56a4,4,0,0,1,4,4v4.54A23.31,23.31,0,0,1,256,247.63Zm-15.28-23.82v.54a15.28,15.28,0,0,0,30.56,0v-.54Z" fill="#181028"/><rect x="148.84" y="289.56" width="214.31" height="32.42" fill="#ff8c3e"/><rect x="256" y="289.56" width="107.16" height="32.42" fill="#ba4d1c"/><path d="M363.16,326H148.84a4,4,0,0,1-4-4V289.56a4,4,0,0,1,4-4H363.16a4,4,0,0,1,4,4V322A4,4,0,0,1,363.16,326Zm-210.32-8H359.16V293.56H152.84Z" fill="#181028"/><rect x="163.79" y="321.98" width="184.41" height="93.86" fill="#ff8c3e"/><rect x="163.79" y="321.98" width="184.41" height="45.48" fill="#ba4d1c"/><path d="M348.21,419.84H163.79a4,4,0,0,1-4-4V322a4,4,0,0,1,4-4H348.21a4,4,0,0,1,4,4v93.86A4,4,0,0,1,348.21,419.84Zm-180.42-8H344.21V326H167.79Z" fill="#181028"/><path d="M216,151.8v28A40,40,0,0,0,256,219.83h0a40,40,0,0,0,40.05-40.05V160S228.72,106.17,216,151.8Z" fill="#f9caaa"/><path d="M297.51,162.63a13.11,13.11,0,1,1,0,26.22" fill="#f9caaa"/><path d="M214.49,162.63a13.11,13.11,0,0,0,0,26.22" fill="#f9caaa"/><path d="M203.29,167.4s25.54-31.75,28.19-33.84c0,0,5.93,10,31.91,21.41,6.39,2.81,25.67,1.17,32.83,4.73q5.44,2.72,11.11,5.72V148.18a52,52,0,0,0-52-52h0a52,52,0,0,0-52,52Z" fill="#232938"/><path d="M256,223.83A44.1,44.1,0,0,1,212,179.78v-28a4,4,0,0,1,8,0v28a36,36,0,0,0,72.1,0V160a4,4,0,0,1,8,0v19.74A44.1,44.1,0,0,1,256,223.83Z" fill="#181028"/><path d="M203.29,171.4a3.88,3.88,0,0,1-1.33-.23,4,4,0,0,1-2.67-3.77V148.18a56,56,0,1,1,112,0v17.24a4,4,0,0,1-5.89,3.53c-3.59-1.91-7.3-3.82-11-5.67-3.08-1.53-10.16-1.94-16.41-2.31-6.76-.39-12.6-.73-16.25-2.33-17.46-7.65-26.3-14.77-30.47-19-4.94,5.72-15.48,18.58-24.9,30.3A4,4,0,0,1,203.29,171.4Zm28.19-41.84a4.51,4.51,0,0,1,.73.07,4,4,0,0,1,2.71,1.9S241,140.79,265,151.31c2.34,1,8.27,1.37,13.5,1.68,7.36.43,15,.87,19.51,3.13l5.33,2.69V148.18a48,48,0,1,0-96,0v7.9c8.61-10.6,19.66-24,21.71-25.66A4,4,0,0,1,231.48,129.56Z" fill="#181028"/><path d="M297.51,192.85a4,4,0,0,1,0-8,9.11,9.11,0,1,0,0-18.22,4,4,0,0,1,0-8,17.11,17.11,0,1,1,0,34.22Z" fill="#181028"/><path d="M214.49,192.85a17.11,17.11,0,0,1,0-34.22,4,4,0,0,1,0,8,9.11,9.11,0,0,0,0,18.22,4,4,0,0,1,0,8Z" fill="#181028"/><path d="M323.15,293.56H188.85a4,4,0,0,1-4-4V256.83a41.07,41.07,0,0,1,41-41h60.24a41.07,41.07,0,0,1,41,41v32.73A4,4,0,0,1,323.15,293.56Zm-130.3-8h126.3V256.83a33.06,33.06,0,0,0-33-33H225.88a33.06,33.06,0,0,0-33,33Z" fill="#181028"/><path d="M281.15,266.79a4,4,0,0,1-2.42-.82l-25.15-19.16a4,4,0,1,1,4.84-6.36l19.81,15.09,5.68-36.35a4,4,0,1,1,7.9,1.23l-6.71,43a4,4,0,0,1-2.46,3.1A4.07,4.07,0,0,1,281.15,266.79Z" fill="#181028"/><path d="M256,293.56a4,4,0,0,1-4-4V251.7L233.27,266a4,4,0,0,1-6.37-2.57l-6.71-43a4,4,0,1,1,7.9-1.23l5.68,36.35,19.81-15.09a4,4,0,0,1,6.42,3.18v45.93A4,4,0,0,1,256,293.56Z" fill="#181028"/><path d="M158.81,293.56a4,4,0,0,1-4-4V251.5a4,4,0,0,1,.41-1.78L168.5,223a4,4,0,0,1,7.16,3.56l-12.85,25.87v37.12A4,4,0,0,1,158.81,293.56Z" fill="#181028"/></svg>