<svg id="b04b182b-1d81-46bc-907b-54229c04ba82" data-name="Layer 2" xmlns="http://www.w3.org/2000/svg" viewBox="0 0 512 512"><path d="M275.31,215.69v14.56a27.06,27.06,0,0,0,27.06,27.06h15.1V221Z" fill="#232938"/><path d="M304.38,261.31h-2a31.1,31.1,0,0,1-31.06-31.06V215.69a4,4,0,0,1,8,0v14.56a23.09,23.09,0,0,0,23.06,23.06h2a4,4,0,0,1,0,8Z" fill="#181028"/><path d="M400.6,215.69v14.56a27.06,27.06,0,0,1-27.06,27.06h-15.1V221Z" fill="#232938"/><path d="M256,405.27H92.09V302.5a45.19,45.19,0,0,1,45.19-45.19h73.53A45.19,45.19,0,0,1,256,302.5Z" fill="#3fa4ef"/><path d="M213.53,257.31h-79l-1.48,0a42.46,42.46,0,0,1,41,42.43v105.5h82V299.77A42.46,42.46,0,0,0,213.53,257.31Z" fill="#25619e"/><path d="M174,286.38a23.53,23.53,0,0,1-23.53-23.53v-5.54h47.06v5.54A23.52,23.52,0,0,1,174,286.38Z" fill="#f9caaa"/><path d="M174,290.38a27.56,27.56,0,0,1-27.53-27.53v-5.54a4,4,0,0,1,4-4h47.06a4,4,0,0,1,4,4v5.54A27.56,27.56,0,0,1,174,290.38Zm-19.53-29.07v1.54a19.53,19.53,0,0,0,39.06,0v-1.54Z" fill="#181028"/><path d="M125.16,174.3v34.15c2.58,64.85,95.2,64.82,97.77,0V184.36S140.75,118.6,125.16,174.3Z" fill="#f9caaa"/><path d="M224.71,187.52c21.23.84,21.22,31.17,0,32" fill="#f9caaa"/><path d="M123.38,187.52c-21.23.84-21.22,31.17,0,32" fill="#f9caaa"/><path d="M109.71,193.34s31.17-38.75,34.4-41.3c0,0,7.25,12.25,38.95,26.14,7.81,3.42,31.34,1.41,40.07,5.76q6.66,3.31,13.56,7V169.88c-3.35-84.23-123.65-84.18-127,0Z" fill="#232938"/><path d="M174.05,261.08h0c-24.47,0-51.45-16.42-52.88-52.47V174.3a4,4,0,0,1,8,0v34.07c1.25,30.71,24.13,44.71,44.88,44.71h0c20.74,0,43.62-14,44.88-44.71v-24a4,4,0,0,1,8,0v24.09a.81.81,0,0,1,0,.16C225.49,244.66,198.51,261.08,174.05,261.08Z" fill="#181028"/><path d="M109.71,197.34a3.88,3.88,0,0,1-1.33-.23,4,4,0,0,1-2.67-3.77V169.72c1.82-46,36.26-67,67.48-67h0c31.22,0,65.66,21,67.49,67v21.21a4,4,0,0,1-5.88,3.53c-4.41-2.35-8.93-4.68-13.46-6.94-3.92-2-12.66-2.46-20.37-2.91-8.16-.47-15.22-.88-19.52-2.77-22.07-9.67-32.82-18.75-37.55-23.76-5.78,6.62-19.13,22.91-31.08,37.77A4,4,0,0,1,109.71,197.34Zm34.4-49.3a3.54,3.54,0,0,1,.73.07,4,4,0,0,1,2.71,1.89c0,.08,7.44,11.51,37.12,24.51,3,1.31,10,1.72,16.78,2.12,8.89.52,18.08,1.05,23.47,3.73q3.9,1.95,7.77,3.95V170c-1.66-40.7-32-59.23-59.49-59.23h0c-27.51,0-57.85,18.54-59.49,59.23V182c10.14-12.52,25.35-31.09,27.92-33.12A4,4,0,0,1,144.11,148Z" fill="#181028"/><path d="M224.71,223.52a4,4,0,0,1-.16-8c8.34-.33,12.08-6.27,12.08-12s-3.73-11.67-12.08-12a4,4,0,0,1,.32-8c13,.52,19.76,10.46,19.76,20s-6.79,19.49-19.76,20Z" fill="#181028"/><path d="M123.38,223.52h-.16c-13-.51-19.76-10.45-19.76-20s6.78-19.48,19.76-20a4,4,0,1,1,.32,8c-8.35.33-12.08,6.27-12.08,12s3.73,11.68,12.08,12a4,4,0,0,1-.16,8Z" fill="#181028"/><path d="M256,409.27H92.09a4,4,0,0,1-4-4V302.5a49.25,49.25,0,0,1,49.19-49.19h73.53A49.25,49.25,0,0,1,260,302.5V405.27A4,4,0,0,1,256,409.27Zm-159.91-8H252V302.5a41.24,41.24,0,0,0-41.19-41.19H137.28A41.24,41.24,0,0,0,96.09,302.5Z" fill="#181028"/><path d="M204.74,313.77a4,4,0,0,1-2.42-.82l-30.7-23.39a4,4,0,1,1,4.85-6.36l25.36,19.32L209,256.69a4,4,0,1,1,7.9,1.23l-8.19,52.46a4,4,0,0,1-2.45,3.1A4.12,4.12,0,0,1,204.74,313.77Z" fill="#181028"/><path d="M174,409.27a4,4,0,0,1-4-4V294.46L145.77,313a4,4,0,0,1-6.38-2.57l-8.18-52.46a4,4,0,1,1,7.9-1.23l7.15,45.83,25.36-19.32a4,4,0,0,1,6.42,3.18V405.27A4,4,0,0,1,174,409.27Z" fill="#181028"/><path d="M419.91,405.27H256V302.5a45.19,45.19,0,0,1,45.19-45.19h73.53a45.19,45.19,0,0,1,45.19,45.19Z" fill="#ff4aa5"/><path d="M377.45,257.31h-79c-.5,0-1,0-1.49,0a42.47,42.47,0,0,1,41,42.43v105.5h82V299.77A42.46,42.46,0,0,0,377.45,257.31Z" fill="#c6247d"/><path d="M338,286.38a23.52,23.52,0,0,1-23.53-23.53v-5.54h47.06v5.54A23.53,23.53,0,0,1,338,286.38Z" fill="#f9caaa"/><path d="M338,290.38a27.56,27.56,0,0,1-27.53-27.53v-5.54a4,4,0,0,1,4-4h47.06a4,4,0,0,1,4,4v5.54A27.56,27.56,0,0,1,338,290.38Zm-19.53-29.07v1.54a19.53,19.53,0,0,0,39.06,0v-1.54Z" fill="#181028"/><path d="M289.07,174.3v34.15c2.58,64.85,95.21,64.82,97.77,0V184.36S304.66,118.6,289.07,174.3Z" fill="#f9caaa"/><path d="M388.62,187.52c21.23.84,21.22,31.17,0,32" fill="#f9caaa"/><path d="M287.29,187.52c-21.23.84-21.22,31.17,0,32" fill="#f9caaa"/><path d="M273.62,193.34S304.8,154.59,308,152c0,0,7.25,12.25,39,26.14,7.81,3.42,31.34,1.41,40.08,5.76,4.43,2.21,9,4.54,13.55,7V169.88c-3.35-84.23-123.65-84.18-127,0Z" fill="#232938"/><path d="M338,261.08h0c-24.47,0-51.45-16.43-52.87-52.47a.81.81,0,0,1,0-.16V174.3a4,4,0,0,1,8,0v34.07c1.26,30.71,24.14,44.71,44.88,44.71h0c20.74,0,43.62-14,44.88-44.71v-24a4,4,0,0,1,8,0v24.25C389.4,244.66,362.42,261.08,338,261.08Z" fill="#181028"/><path d="M273.62,197.34a3.88,3.88,0,0,1-1.33-.23,4,4,0,0,1-2.67-3.77V169.72c1.82-46,36.26-67,67.49-67h0c31.22,0,65.65,21,67.48,67v21.21a4,4,0,0,1-5.88,3.53c-4.41-2.35-8.94-4.69-13.46-6.94-3.91-2-12.66-2.46-20.37-2.91-8.16-.47-15.21-.88-19.52-2.77-22.07-9.67-32.82-18.75-37.55-23.76C302,164.7,288.69,181,276.74,195.85A4,4,0,0,1,273.62,197.34Zm4-4h0ZM308,148a3.71,3.71,0,0,1,.74.07,4,4,0,0,1,2.71,1.89c0,.08,7.43,11.51,37.11,24.51,3,1.31,10,1.72,16.78,2.12,8.89.52,18.09,1.05,23.47,3.73,2.6,1.3,5.19,2.61,7.77,3.95V170c-1.66-40.69-32-59.23-59.48-59.23h0c-27.53,0-57.88,18.56-59.49,59.31h0c0,.32,0,.62,0,.85V182c10.15-12.52,25.35-31.09,27.93-33.12A4,4,0,0,1,308,148Z" fill="#181028"/><path d="M388.62,223.52a4,4,0,0,1-.16-8c8.35-.33,12.08-6.27,12.08-12s-3.73-11.67-12.08-12a4,4,0,0,1,.32-8c13,.52,19.76,10.46,19.76,20s-6.79,19.49-19.76,20Z" fill="#181028"/><path d="M287.29,223.52h-.16c-13-.51-19.76-10.45-19.76-20s6.79-19.48,19.76-20a4,4,0,1,1,.32,8c-8.35.33-12.08,6.27-12.08,12s3.74,11.68,12.08,12a4,4,0,0,1-.16,8Z" fill="#181028"/><path d="M419.91,409.27H256a4,4,0,0,1-4-4V302.5a49.25,49.25,0,0,1,49.19-49.19h73.53a49.25,49.25,0,0,1,49.19,49.19V405.27A4,4,0,0,1,419.91,409.27Zm-159.91-8H415.91V302.5a41.24,41.24,0,0,0-41.19-41.19H301.19A41.24,41.24,0,0,0,260,302.5Z" fill="#181028"/><path d="M373.54,261.31h-2a4,4,0,0,1,0-8h2a23.09,23.09,0,0,0,23.06-23.06V215.69a4,4,0,1,1,8,0v14.56A31.1,31.1,0,0,1,373.54,261.31Z" fill="#181028"/><path d="M337.27,405.27H174.73V368.44a44.81,44.81,0,0,1,44.82-44.81h72.9a44.81,44.81,0,0,1,44.82,44.81Z" fill="#f7b94b"/><path d="M295.16,323.63H216.84l-1.48,0A42.11,42.11,0,0,1,256,365.74v39.53h81.27V365.74A42.11,42.11,0,0,0,295.16,323.63Z" fill="#b7751d"/><path d="M256,352.46a23.33,23.33,0,0,1-23.33-23.33v-5.5h46.66v5.5A23.33,23.33,0,0,1,256,352.46Z" fill="#f9caaa"/><path d="M256,356.46a27.36,27.36,0,0,1-27.33-27.33v-5.5a4,4,0,0,1,4-4h46.66a4,4,0,0,1,4,4v5.5A27.36,27.36,0,0,1,256,356.46Zm-19.33-28.83v1.5a19.33,19.33,0,1,0,38.66,0v-1.5Z" fill="#181028"/><path d="M207.53,241.32v33.86c2.55,64.31,94.4,64.27,96.94,0V251.29S223,186.08,207.53,241.32Z" fill="#f9caaa"/><path d="M306.24,254.42c21.06.84,21,30.91,0,31.74" fill="#f9caaa"/><path d="M205.76,254.42c-21.06.84-21,30.91,0,31.74" fill="#f9caaa"/><path d="M192.2,260.19s30.92-38.42,34.12-40.95c0,0,7.18,12.14,38.62,25.92,7.74,3.39,31.08,1.4,39.74,5.72q6.6,3.27,13.44,6.92V236.93c-3.32-83.53-122.62-83.48-125.92,0Z" fill="#232938"/><path d="M256,327.4h0c-24.28,0-51.06-16.3-52.47-52.06v-34a4,4,0,0,1,8,0V275.1c1.24,30.43,23.91,44.3,44.47,44.3h0c20.56,0,43.23-13.86,44.47-44.3V251.29a4,4,0,1,1,8,0v24C307.05,311.11,280.28,327.4,256,327.4Z" fill="#181028"/><path d="M192.2,264.2a4.14,4.14,0,0,1-1.33-.23,4,4,0,0,1-2.67-3.77V236.93a.92.92,0,0,1,0-.16c1.8-45.66,36-66.46,66.95-66.47h0c31,0,65.13,20.8,67,66.47v21a4,4,0,0,1-5.88,3.53c-4.36-2.32-8.85-4.64-13.34-6.87-3.88-1.93-12.55-2.44-20.19-2.89-8.1-.47-15.1-.88-19.37-2.75-21.85-9.57-32.52-18.56-37.23-23.54-5.73,6.58-19,22.71-30.79,37.42A4,4,0,0,1,192.2,264.2Zm34.12-49a3.61,3.61,0,0,1,.73.07,4,4,0,0,1,2.71,1.89c.05.08,7.37,11.4,36.79,24.29,3,1.3,9.91,1.71,16.62,2.1,8.83.51,17.95,1,23.29,3.71,2.56,1.27,5.12,2.57,7.66,3.88V237c-1.64-40.33-31.7-58.71-59-58.71h0c-27.26,0-57.32,18.38-59,58.71v11.86c10.06-12.41,25.09-30.76,27.64-32.77A4,4,0,0,1,226.32,215.24Z" fill="#181028"/><path d="M306.24,290.16a4,4,0,0,1-.16-8c8.25-.32,11.95-6.19,11.95-11.87s-3.69-11.54-11.95-11.87a4,4,0,0,1,.32-8c12.89.52,19.63,10.39,19.63,19.87s-6.75,19.36-19.63,19.87Z" fill="#181028"/><path d="M205.76,290.16h-.16c-12.88-.51-19.63-10.38-19.63-19.87s6.74-19.35,19.63-19.87a4,4,0,0,1,.32,8c-8.26.33-11.95,6.2-11.95,11.87s3.7,11.55,11.95,11.87a4,4,0,0,1-.16,8Z" fill="#181028"/><path d="M337.27,409.27H174.73a4,4,0,0,1-4-4V368.44a48.87,48.87,0,0,1,48.82-48.81h72.9a48.87,48.87,0,0,1,48.82,48.81v36.83A4,4,0,0,1,337.27,409.27Zm-158.54-8H333.27V368.44a40.86,40.86,0,0,0-40.82-40.81h-72.9a40.86,40.86,0,0,0-40.82,40.81Z" fill="#181028"/></svg>