<svg id="a5349d39-c0c6-41eb-a881-0404447266ed" data-name="Layer 2" xmlns="http://www.w3.org/2000/svg" viewBox="0 0 512 512"><rect x="113.05" y="141.44" width="285.9" height="225.68" fill="#fff"/><rect x="113.05" y="141.44" width="285.9" height="225.68" fill="#fff"/><polygon points="398.95 141.44 113.05 367.12 398.95 367.12 398.95 141.44" fill="#dfe0da"/><rect x="96.71" y="96.16" width="318.57" height="45.27" fill="#ff3943"/><path d="M415.29,145.44H96.71a4,4,0,0,1-4-4V96.16a4,4,0,0,1,4-4H415.29a4,4,0,0,1,4,4v45.28A4,4,0,0,1,415.29,145.44Zm-314.58-8H411.29V100.16H100.71Z" fill="#181028"/><path d="M399,371.12H113.05a4,4,0,0,1-4-4V141.44a4,4,0,0,1,4-4H399a4,4,0,0,1,4,4V367.12A4,4,0,0,1,399,371.12Zm-281.9-8H395V145.44H117.05Z" fill="#181028"/><path d="M256,419.84a4,4,0,0,1-4-4v-45.5a4,4,0,1,1,8,0v45.5A4,4,0,0,1,256,419.84Z" fill="#181028"/><path d="M335.45,212.5H176.55a4,4,0,0,1,0-8h158.9a4,4,0,1,1,0,8Z" fill="#181028"/><path d="M335.45,258.28H176.55a4,4,0,0,1,0-8h158.9a4,4,0,1,1,0,8Z" fill="#181028"/><path d="M335.45,304.06H176.55a4,4,0,0,1,0-8h158.9a4,4,0,0,1,0,8Z" fill="#181028"/></svg>