<svg id="a6ed26eb-a425-45a0-9706-eb76ddccd4cd" data-name="Layer 2" xmlns="http://www.w3.org/2000/svg" viewBox="0 0 512 512"><path d="M160.85,150.05V328.68a61.42,61.42,0,0,0-16.3-2.17c-26.1,0-47.25,15.87-47.25,35.44s21.15,35.43,47.25,35.43S191.8,381.52,191.8,362V197.6l147.64-25V293.24a61.55,61.55,0,0,0-16.31-2.17c-26.09,0-47.25,15.87-47.25,35.44S297,362,323.13,362s47.25-15.87,47.25-35.44V114.62Z" fill="#48d8d4"/><path d="M144.55,401.38c-28.26,0-51.25-17.69-51.25-39.43s23-39.44,51.25-39.44a65.91,65.91,0,0,1,12.3,1.14V150.05a4,4,0,0,1,3.34-3.94l209.53-35.44a4,4,0,0,1,4.66,4V326.51c0,21.75-23,39.44-51.25,39.44s-51.25-17.69-51.25-39.44,23-39.44,51.25-39.44a67,67,0,0,1,12.31,1.14V177.37L195.8,201V362C195.8,383.69,172.81,401.38,144.55,401.38Zm0-70.87c-23.85,0-43.25,14.1-43.25,31.44s19.4,31.43,43.25,31.43S187.8,379.28,187.8,362V197.6a4,4,0,0,1,3.33-3.94l147.64-25a4,4,0,0,1,4.67,3.94V293.24a4,4,0,0,1-5.07,3.86,57,57,0,0,0-15.24-2c-23.85,0-43.25,14.11-43.25,31.44S299.28,358,323.13,358s43.25-14.11,43.25-31.44V119.35L164.85,153.43V328.68a4,4,0,0,1-5.06,3.85A57.46,57.46,0,0,0,144.55,330.51Z" fill="#181028"/></svg>