<svg id="ad8b953b-b174-4136-ab18-1be898cabbf4" data-name="Layer 2" xmlns="http://www.w3.org/2000/svg" viewBox="0 0 512 512"><polygon points="160.77 375.72 137.44 375.72 148.22 335.01 178.73 335.01 160.77 375.72" fill="#e08051"/><path d="M160.77,379.72H137.44a4,4,0,0,1-3.87-5L144.35,334a4,4,0,0,1,3.87-3h30.51a4,4,0,0,1,3.66,5.61l-18,40.72A4,4,0,0,1,160.77,379.72Zm-18.13-8h15.52L172.59,339H151.3Z" fill="#181028"/><polygon points="350.48 375.72 373.81 375.72 363.03 335.01 332.52 335.01 350.48 375.72" fill="#e08051"/><path d="M373.81,379.72H350.48a4,4,0,0,1-3.66-2.38l-18-40.72a4,4,0,0,1,3.66-5.61H363a4,4,0,0,1,3.87,3l10.78,40.72a4,4,0,0,1-3.87,5Zm-20.72-8h15.52L360,339H338.66Z" fill="#181028"/><path d="M190.79,136.28H320.46a41.62,41.62,0,0,1,41.63,41.62v97H149.16v-97A41.62,41.62,0,0,1,190.79,136.28Z" fill="#ff3943"/><path d="M319.32,136.28H226.89A42.77,42.77,0,0,1,269.66,179v95.82h92.43V179A42.77,42.77,0,0,0,319.32,136.28Z" fill="#cc2136"/><path d="M362.09,278.86H149.16a4,4,0,0,1-4-4v-97a45.68,45.68,0,0,1,45.63-45.62H320.46a45.68,45.68,0,0,1,45.63,45.62v97A4,4,0,0,1,362.09,278.86Zm-208.93-8H358.09v-93a37.67,37.67,0,0,0-37.63-37.62H190.79a37.67,37.67,0,0,0-37.63,37.62Z" fill="#181028"/><rect x="174.49" y="274.24" width="162.28" height="74.19" fill="#ff3943"/><rect x="269.66" y="274.24" width="67.11" height="74.19" fill="#cc2136"/><path d="M127.49,200.09a45.85,45.85,0,0,0-14.68,88.55v39.3a20.48,20.48,0,0,0,20.48,20.48h42V245.9A45.85,45.85,0,0,0,127.49,200.09Z" fill="#ff3943"/><path d="M384.51,200.09a45.85,45.85,0,0,1,14.68,88.55v39.3a20.48,20.48,0,0,1-20.48,20.48H336.76V245.9A45.85,45.85,0,0,1,384.51,200.09Z" fill="#ff3943"/><path d="M175.24,352.42h-42a24.51,24.51,0,0,1-24.48-24.48V291.3a49.87,49.87,0,0,1,18.52-95.21h0a49.86,49.86,0,0,1,51.91,49.81V348.42A4,4,0,0,1,175.24,352.42ZM127.65,204.09a42.2,42.2,0,0,0-40,39,41.73,41.73,0,0,0,26.61,41.86,4,4,0,0,1,2.56,3.73v39.3a16.49,16.49,0,0,0,16.48,16.48h38V245.9a41.85,41.85,0,0,0-43.59-41.81Zm-.16-4h0Z" fill="#181028"/><path d="M378.71,352.42H336.76a4,4,0,0,1-4-4V245.9a49.85,49.85,0,1,1,70.43,45.4v36.64A24.51,24.51,0,0,1,378.71,352.42Zm-37.95-8h37.95a16.49,16.49,0,0,0,16.48-16.48v-39.3a4,4,0,0,1,2.56-3.73,41.73,41.73,0,0,0,26.61-41.86,42.2,42.2,0,0,0-40-39h0a41.85,41.85,0,0,0-43.59,41.81Z" fill="#181028"/><path d="M336.76,352.42H174.49a4,4,0,0,1-4-4V274.24a4,4,0,0,1,4-4H336.76a4,4,0,0,1,4,4v74.18A4,4,0,0,1,336.76,352.42Zm-158.27-8H332.76V278.24H178.49Z" fill="#181028"/><circle cx="382.61" cy="244.68" r="19.58" fill="#e08051"/><circle cx="128.64" cy="244.68" r="19.58" fill="#e08051"/><path d="M128.64,268.26a23.58,23.58,0,1,1,23.58-23.57A23.6,23.6,0,0,1,128.64,268.26Zm0-39.15a15.58,15.58,0,1,0,15.58,15.58A15.6,15.6,0,0,0,128.64,229.11Z" fill="#181028"/><path d="M382.61,268.26a23.58,23.58,0,1,1,23.58-23.57A23.6,23.6,0,0,1,382.61,268.26Zm0-39.15a15.58,15.58,0,1,0,15.58,15.58A15.6,15.6,0,0,0,382.61,229.11Z" fill="#181028"/></svg>