<svg id="fb9467ff-ceb3-4ed4-a175-36e949c431c4" data-name="Layer 2" xmlns="http://www.w3.org/2000/svg" viewBox="0 0 512 512"><path d="M368.24,102.26h0a8.89,8.89,0,0,0-8.89,8.89v52.92a10,10,0,0,1-9.17,10.13,9.82,9.82,0,0,1-10.47-9.79V111.46a9.09,9.09,0,0,0-8.3-9.18,8.89,8.89,0,0,0-9.48,8.87v52.92a10,10,0,0,1-9.17,10.13,9.82,9.82,0,0,1-10.47-9.79V111.46a9.09,9.09,0,0,0-8.3-9.18,8.89,8.89,0,0,0-9.48,8.87v71.07a42.32,42.32,0,0,0,18.08,34.52l.36.25a21.72,21.72,0,0,1,9,18.48l-5.81,154.06c-.35,11,6.82,20.21,15.8,20.21h14.87c9,0,16.15-9.18,15.8-20.21l-5.78-153.18a21.64,21.64,0,0,1,9.41-18.76l1.46-1a42.31,42.31,0,0,0,19.43-35.43v-70A8.89,8.89,0,0,0,368.24,102.26Z" fill="#dfe0da"/><path d="M249.88,166.91c0-35.7-25.74-64.65-57.5-64.65s-57.51,29-57.51,64.65c0,22.76,10.46,42.77,26.27,54.28a33,33,0,0,1,13.67,27.92L169.14,393.3a15.82,15.82,0,0,0,15.8,16.44h14.87a15.82,15.82,0,0,0,15.8-16.44l-5.67-144.19a33,33,0,0,1,13.67-27.92C239.42,209.68,249.88,189.67,249.88,166.91Z" fill="#dfe0da"/><path d="M199.81,413.74H184.94a19.82,19.82,0,0,1-19.8-20.59L170.81,249a29,29,0,0,0-12-24.52c-17.48-12.74-27.91-34.24-27.91-57.52,0-37.85,27.59-68.65,61.51-68.65s61.5,30.8,61.5,68.65c0,23.28-10.43,44.78-27.91,57.52a29,29,0,0,0-12,24.52l5.67,144.2a19.82,19.82,0,0,1-19.8,20.59Zm-7.43-307.48c-29.51,0-53.51,27.21-53.51,60.65,0,20.73,9.2,39.82,24.62,51.05a37,37,0,0,1,15.32,31.31l-5.67,144.19a11.82,11.82,0,0,0,11.8,12.28h14.87a11.82,11.82,0,0,0,11.8-12.28l-5.67-144.19A37,37,0,0,1,221.26,218c15.42-11.23,24.62-30.32,24.62-51.05C245.88,133.47,221.88,106.26,192.38,106.26Z" fill="#181028"/><ellipse cx="192.38" cy="166.91" rx="34.49" ry="43.71" fill="#b0aeaf"/><path d="M336.81,413.74H321.94a18.15,18.15,0,0,1-13-5.76,25.52,25.52,0,0,1-6.77-18.58L308,235.32a17.6,17.6,0,0,0-7.33-15.07l-.34-.25a46.43,46.43,0,0,1-19.77-37.78V111.15a12.89,12.89,0,0,1,13.74-12.86,13.08,13.08,0,0,1,12,13.17v53a5.82,5.82,0,0,0,6.21,5.8,6.09,6.09,0,0,0,5.43-6.14V111.15a12.89,12.89,0,0,1,13.74-12.86,13.08,13.08,0,0,1,12,13.17v53a5.82,5.82,0,0,0,6.21,5.8,6.09,6.09,0,0,0,5.43-6.14V111.15a12.89,12.89,0,0,1,25.78,0v70A46.14,46.14,0,0,1,359.88,220l-1.4.93a17.72,17.72,0,0,0-7.65,15.29l5.78,153.18a25.58,25.58,0,0,1-6.77,18.6A18.16,18.16,0,0,1,336.81,413.74ZM293.4,106.26a4.88,4.88,0,0,0-4.89,4.89v71.07a38.41,38.41,0,0,0,16.39,31.25l.37.27A25.63,25.63,0,0,1,316,235.62l-5.81,154.06a17.72,17.72,0,0,0,4.51,12.73,10.19,10.19,0,0,0,7.29,3.33h14.87a10.19,10.19,0,0,0,7.29-3.33,17.74,17.74,0,0,0,4.51-12.75L342.84,236.5A25.76,25.76,0,0,1,354,214.28c.5-.34,1-.68,1.53-1a38.19,38.19,0,0,0,17.6-32.07v-70a4.89,4.89,0,0,0-9.78,0v52.92a14,14,0,0,1-12.91,14.12,13.71,13.71,0,0,1-10.36-3.7,13.86,13.86,0,0,1-4.37-10.08V111.46a5.12,5.12,0,0,0-4.56-5.19,4.88,4.88,0,0,0-5.22,4.88v52.92A14,14,0,0,1,313,178.19a13.7,13.7,0,0,1-10.36-3.7,13.87,13.87,0,0,1-4.37-10.08V111.46a5.12,5.12,0,0,0-4.56-5.19Z" fill="#181028"/></svg>