<svg id="f9d2036b-2724-464d-a95b-99961abc2dd9" data-name="Layer 2" xmlns="http://www.w3.org/2000/svg" viewBox="0 0 512 512"><path d="M312.13,238.88H199.87l-77.05,174H389.18Z" fill="#3996c4"/><polygon points="240.52 238.88 199.87 238.88 122.82 412.84 233.67 412.84 240.52 238.88" fill="#246b9b"/><path d="M296.78,99.16A46.43,46.43,0,0,0,256,123.36a46.43,46.43,0,0,0-40.78-24.2l-1.6,0c-29.84,1-50,31-40.54,59.36l26.79,80.34H312.13l26.79-80.34c9.44-28.32-10.7-58.35-40.54-59.36Z" fill="#48d8d4"/><path d="M244.73,109.74a46.26,46.26,0,0,0-29.51-10.58l-1.6,0c-29.84,1-50,31-40.54,59.36l26.79,80.34h59l-31.1-93.27A46.37,46.37,0,0,1,244.73,109.74Z" fill="#2f94af"/><path d="M312.13,242.88H199.87a4,4,0,0,1-3.8-2.73l-26.78-80.34a49.06,49.06,0,0,1,6.34-43.9,47.73,47.73,0,0,1,37.86-20.72c.57,0,1.15,0,1.73,0A50.47,50.47,0,0,1,256,115.9a50.47,50.47,0,0,1,40.78-20.74q.87,0,1.74,0a47.73,47.73,0,0,1,37.85,20.72,49.06,49.06,0,0,1,6.34,43.9l-26.78,80.34A4,4,0,0,1,312.13,242.88Zm-109.38-8h106.5l25.87-77.6a41.09,41.09,0,0,0-5.32-36.8,39.81,39.81,0,0,0-31.56-17.3,42.45,42.45,0,0,0-38.73,22.1,4,4,0,0,1-7,0,42.46,42.46,0,0,0-37.27-22.12l-1.46,0a39.81,39.81,0,0,0-31.56,17.3,41.09,41.09,0,0,0-5.32,36.8Z" fill="#181028"/><path d="M389.18,416.84H122.82a4,4,0,0,1-3.66-5.62l77.05-174a4,4,0,0,1,3.66-2.38H312.13a4,4,0,0,1,3.66,2.38l77,174a4,4,0,0,1-3.66,5.62Zm-260.22-8H383l-73.51-166H202.47Z" fill="#181028"/><path d="M256,412.6a4,4,0,0,1-4-4V238.88a4,4,0,0,1,8,0V408.6A4,4,0,0,1,256,412.6Z" fill="#181028"/><path d="M326.54,416.84a4,4,0,0,1-3.89-3l-42.34-174a4,4,0,0,1,7.78-1.89l42.34,174a4,4,0,0,1-2.94,4.83A3.91,3.91,0,0,1,326.54,416.84Z" fill="#181028"/><path d="M185.46,416.84a3.91,3.91,0,0,1-1-.11,4,4,0,0,1-2.94-4.83l42.34-174a4,4,0,0,1,7.78,1.89l-42.34,174A4,4,0,0,1,185.46,416.84Z" fill="#181028"/></svg>