<svg id="b6a981de-c1d8-4f9b-bccb-1ca96252fd33" data-name="Layer 2" xmlns="http://www.w3.org/2000/svg" viewBox="0 0 512 512"><circle cx="201.65" cy="301.79" r="103.64" fill="#ff3943"/><path d="M201.64,409.49A107.67,107.67,0,1,1,301.38,261.3h0a107.76,107.76,0,0,1-99.74,148.19Zm0-207.39A99.69,99.69,0,1,0,294,264.31h0a99.88,99.88,0,0,0-92.31-62.21Z" fill="#181028"/><polygon points="252.02 284.55 155.68 271.18 192.28 361.3 252.02 284.55" fill="#fff"/><path d="M277.55,120.29l.06,32.17.14,76.72a37.24,37.24,0,0,0-9.94-1.3c-15.91,0-28.79,9.72-28.77,21.65s12.94,21.58,28.85,21.55,28.78-9.72,28.76-21.65l-.18-100.19,90-15.39.13,73.53a37.24,37.24,0,0,0-9.94-1.3c-15.91,0-28.79,9.72-28.77,21.65s12.94,21.58,28.85,21.55,28.78-9.72,28.76-21.65l-.17-97-.06-32.18Z" fill="#c449d6"/><path d="M267.82,275.08c-18.06,0-32.75-11.44-32.78-25.54,0-7.06,3.54-13.63,10-18.5a38,38,0,0,1,22.75-7.16,43,43,0,0,1,5.94.4l-.19-104a4,4,0,0,1,3.33-4l127.7-21.83a4,4,0,0,1,4.67,3.94l.23,129.17c0,14.12-14.67,25.63-32.76,25.66h-.07c-18.06,0-32.75-11.44-32.78-25.54,0-7.06,3.54-13.63,10-18.49a38,38,0,0,1,22.75-7.17,39.09,39.09,0,0,1,5.94.4l-.11-63.88-82,14,.17,96.81c0,14.12-14.67,25.63-32.76,25.66Zm.06-43.2h-.06a29.94,29.94,0,0,0-18,5.56c-4.41,3.31-6.83,7.6-6.82,12.08,0,9.69,11.13,17.56,24.78,17.56h.06c13.68,0,24.79-7.94,24.77-17.65l-.18-100.18a4,4,0,0,1,3.33-3.95l90-15.39a4,4,0,0,1,4.68,3.94l.13,73.52a4,4,0,0,1-5.06,3.87,33.37,33.37,0,0,0-8.81-1.16h-.06a29.94,29.94,0,0,0-18,5.56c-4.41,3.31-6.83,7.6-6.82,12.08,0,9.7,11.13,17.56,24.78,17.56h.06c13.68,0,24.79-7.94,24.77-17.64l-.22-124.45-119.7,20.47.19,105.51a4,4,0,0,1-5.06,3.87A33.37,33.37,0,0,0,267.88,231.88Z" fill="#181028"/><path d="M376.4,334.41a4,4,0,0,1-2.58-1l-13.94-11.83a4,4,0,0,1,5.18-6.1L379,327.36a4,4,0,0,1-2.59,7.05Z" fill="#181028"/><path d="M375.81,299a4,4,0,0,1-1.3-7.79l23.41-8a4,4,0,0,1,2.59,7.57l-23.4,8A3.94,3.94,0,0,1,375.81,299Z" fill="#181028"/><path d="M343.8,365.8a4,4,0,0,1-4-3.8l-1.09-22.09a4,4,0,1,1,8-.4l1.09,22.1A4,4,0,0,1,344,365.8Z" fill="#181028"/><path d="M195.53,160.44a4,4,0,0,1-2.86-1.2L179.9,146.16a4,4,0,1,1,5.72-5.59l12.77,13.08a4,4,0,0,1-2.86,6.79Z" fill="#181028"/><path d="M218.09,145.5a4,4,0,0,1-3.87-5l6.38-23.91a4,4,0,0,1,7.73,2.07L222,142.54A4,4,0,0,1,218.09,145.5Z" fill="#181028"/><path d="M153.7,182.06a4,4,0,0,1-.08-8l22.12-.44a4,4,0,1,1,.16,8l-22.12.44Z" fill="#181028"/></svg>