<svg id="f22ad5ca-de49-43bc-a008-68401e64bede" data-name="Layer 2" xmlns="http://www.w3.org/2000/svg" viewBox="0 0 512 512"><path d="M152.5,259.92l30.72-8-6.58-25.21-42.93,11.2a26,26,0,0,0-18.58,31.69l22.69,87a26,26,0,0,0,31.69,18.57L212.44,364l-6.57-25.21-30.72,8a12.74,12.74,0,0,1-15.56-9.12l-16.21-62.14A12.76,12.76,0,0,1,152.5,259.92Z" fill="#e0e0e0"/><path d="M167.66,192.26l52,199.41a31.92,31.92,0,0,0,38.95,22.84l115.21-30.05a31.94,31.94,0,0,0,22.84-39l-52-199.41" fill="#ffc05a"/><path d="M167.66,192.26l17.81,68.29s46.21,4.64,94.21-24.57,82.79-21.6,82.79-21.6l-17.81-68.29Z" fill="#fce9c3"/><path d="M346.17,110.09a45.06,45.06,0,0,0-21.76-4.2,45.3,45.3,0,0,0-51.58-2.61,45.29,45.29,0,0,0-61.69,16.09,45.35,45.35,0,0,0-43.73,27.47,45.11,45.11,0,0,0-16.49,13.68c-11.19,15.06,2.75,35.82,20.91,31.08l87.62-22.85A16.06,16.06,0,0,1,279,180.23l4.49,17.22A19,19,0,0,0,306.67,211h0a19,19,0,0,0,13.57-23.14l-4.49-17.22a16,16,0,0,1,11.48-19.58l15.21-4C360.24,142.45,362.83,117.88,346.17,110.09Z" fill="#fce9c3"/><path d="M346.17,110.09a45.06,45.06,0,0,0-21.76-4.2,45.3,45.3,0,0,0-51.58-2.61,45.29,45.29,0,0,0-61.69,16.09,45.35,45.35,0,0,0-43.73,27.47,45.11,45.11,0,0,0-16.49,13.68c-11.19,15.06,2.75,35.82,20.91,31.08l87.62-22.85A16.06,16.06,0,0,1,279,180.23l4.49,17.22A19,19,0,0,0,306.67,211h0a19,19,0,0,0,13.57-23.14l-4.49-17.22a16,16,0,0,1,11.48-19.58l15.21-4C360.24,142.45,362.83,117.88,346.17,110.09Z" fill="#fce9c3"/><path d="M346.17,110.09a45.06,45.06,0,0,0-21.76-4.2,45.3,45.3,0,0,0-51.58-2.61,45.27,45.27,0,0,0-60.67,14.47l.54-.16a45.2,45.2,0,0,1,34.16,4.64,45.35,45.35,0,0,1,51.58,2.62A45.08,45.08,0,0,1,320.2,129a19.23,19.23,0,0,1,10.87,21l11.37-3C360.24,142.45,362.83,117.88,346.17,110.09Z" fill="#c6b495"/><path d="M301.89,215.63a23,23,0,0,1-22.23-17.17l-4.49-17.22a12.07,12.07,0,0,0-14.71-8.62l-87.62,22.85a23.85,23.85,0,0,1-25.13-37.33,49.43,49.43,0,0,1,16.63-14.23A49.37,49.37,0,0,1,209,115.32a49.29,49.29,0,0,1,63.8-16.64,49.33,49.33,0,0,1,52.91,3.15,49.55,49.55,0,0,1,22.2,4.63,23.26,23.26,0,0,1,13.36,23.45A23.74,23.74,0,0,1,343.45,151l-15.21,4a12.06,12.06,0,0,0-8.62,14.7l4.49,17.22a23,23,0,0,1-22.22,28.77ZM263.5,164.22a20.09,20.09,0,0,1,19.41,15l4.49,17.22a15,15,0,0,0,29-7.56l-4.49-17.22a20.06,20.06,0,0,1,14.34-24.46l15.21-4a15.67,15.67,0,0,0,11.84-14,15.19,15.19,0,0,0-8.79-15.47h0a41.24,41.24,0,0,0-19.83-3.83,4.08,4.08,0,0,1-2.67-.82,41.08,41.08,0,0,0-35.64-7.27,41.7,41.7,0,0,0-11.39,4.88,4,4,0,0,1-4.11.07,41.3,41.3,0,0,0-56.25,14.67,4,4,0,0,1-3.62,2,41.74,41.74,0,0,0-12.32,1.31,41,41,0,0,0-27.55,23.75,4,4,0,0,1-1.93,2,41.33,41.33,0,0,0-15,12.47,15.85,15.85,0,0,0,16.69,24.82l87.62-22.85A19.65,19.65,0,0,1,263.5,164.22Z" fill="#181028"/><path d="M250.51,419.56a36,36,0,0,1-34.7-26.88l-52-199.41a4,4,0,1,1,7.74-2l52,199.41a27.92,27.92,0,0,0,34.07,20l115.21-30.05a27.93,27.93,0,0,0,20-34.08l-52-199.41a4,4,0,0,1,7.74-2l52,199.41a35.92,35.92,0,0,1-25.69,43.84L259.64,418.38A36.08,36.08,0,0,1,250.51,419.56Z" fill="#181028"/><path d="M256.86,343.87a4,4,0,0,1-3.86-3L226.1,237.76a4,4,0,0,1,7.74-2l26.9,103.12a4,4,0,0,1-2.86,4.88A4.46,4.46,0,0,1,256.86,343.87Z" fill="#181028"/><path d="M340.76,322a4,4,0,0,1-3.87-3L310,215.87a4,4,0,1,1,7.74-2L344.63,317a4,4,0,0,1-2.86,4.88A3.83,3.83,0,0,1,340.76,322Z" fill="#181028"/><path d="M298.81,332.92a4,4,0,0,1-3.87-3L268.05,226.82a4,4,0,0,1,7.74-2l26.89,103.11a4,4,0,0,1-2.86,4.88A3.83,3.83,0,0,1,298.81,332.92Z" fill="#181028"/><path d="M163,380a30,30,0,0,1-29-22.41l-22.69-87A30,30,0,0,1,132.7,234l42.93-11.2a4,4,0,0,1,4.88,2.86l6.58,25.21a4,4,0,0,1-.42,3,4,4,0,0,1-2.44,1.85l-30.72,8h0a8.77,8.77,0,0,0-6.26,10.69l16.21,62.14a8.77,8.77,0,0,0,10.69,6.26l30.71-8a4,4,0,0,1,4.88,2.86l6.58,25.21a4.09,4.09,0,0,1-.42,3,4,4,0,0,1-2.44,1.84L170.52,379A29.89,29.89,0,0,1,163,380Zm10.82-148.42-39.06,10.19A22,22,0,0,0,119,268.58l22.69,87a22,22,0,0,0,26.81,15.71l39.07-10.19L203,343.62l-26.84,7a16.79,16.79,0,0,1-20.46-12l-16.2-62.14a16.77,16.77,0,0,1,12-20.45l26.84-7ZM152.5,259.92h0Z" fill="#181028"/><circle cx="283.4" cy="373.88" r="9.72" fill="#d3822a"/><circle cx="304.01" cy="348.85" r="6.57" fill="#d3822a"/><circle cx="332.32" cy="357.85" r="6.57" fill="#d3822a"/></svg>