<svg id="b13467a7-8e9c-492b-b676-4988ccbad364" data-name="Layer 2" xmlns="http://www.w3.org/2000/svg" viewBox="0 0 512 512"><rect x="195.57" y="165.05" width="186.81" height="243.55" fill="#c68458"/><path d="M382.38,412.6H195.57a4,4,0,0,1-4-4V165.05a4,4,0,0,1,4-4H382.38a4,4,0,0,1,4,4V408.6A4,4,0,0,1,382.38,412.6Zm-182.81-8H378.38V169.05H199.57Z" fill="#181028"/><rect x="129.62" y="165.05" width="186.81" height="243.55" fill="#f4b98c"/><path d="M316.43,412.6H129.62a4,4,0,0,1-4-4V165.05a4,4,0,0,1,4-4H316.43a4,4,0,0,1,4,4V408.6A4,4,0,0,1,316.43,412.6Zm-182.81-8H312.43V169.05H133.62Z" fill="#181028"/><path d="M316.43,412.6a4,4,0,0,1-2.45-7.16L348.11,379a4,4,0,0,1,5,.09l31.82,26.42a4,4,0,0,1-5.11,6.16L350.47,387.3l-31.59,24.46A4,4,0,0,1,316.43,412.6Z" fill="#181028"/><path d="M350.56,386.17a4,4,0,0,1-4-4V165.05a4,4,0,0,1,8,0V382.17A4,4,0,0,1,350.56,386.17Z" fill="#181028"/><path d="M273.11,191.94a4,4,0,0,1-4-4V153.49a46.09,46.09,0,1,0-92.17,0v34.45a4,4,0,0,1-8,0V153.49a54.09,54.09,0,1,1,108.17,0v34.45A4,4,0,0,1,273.11,191.94Z" fill="#181028"/><path d="M350.56,191.94a4,4,0,0,1-4-4V153.49a46.09,46.09,0,1,0-92.17,0v34.45a4,4,0,0,1-8,0V153.49a54.09,54.09,0,1,1,108.17,0v34.45A4,4,0,0,1,350.56,191.94Z" fill="#181028"/></svg>