<svg id="bf94c6cc-e4a2-4b46-a1ed-210cf5504fdf" data-name="Layer 2" xmlns="http://www.w3.org/2000/svg" viewBox="0 0 512 512"><polygon points="396.9 200.22 115.1 200.22 115.1 174.62 251.75 113.55 396.9 174.62 396.9 200.22" fill="#fce9c3"/><polygon points="251.75 113.55 213.28 130.74 317.57 174.62 317.57 200.22 396.9 200.22 396.9 174.62 251.75 113.55" fill="#c6b495"/><rect x="129.78" y="200.22" width="252.45" height="26.01" fill="#c6b495"/><rect x="129.78" y="346.42" width="252.45" height="26.01" fill="#c6b495"/><rect x="107.01" y="372.44" width="297.97" height="26.01" fill="#fce9c3"/><rect x="144.08" y="226.24" width="29.14" height="120.19" fill="#fce9c3"/><rect x="208.98" y="226.24" width="29.14" height="120.19" fill="#fce9c3"/><rect x="273.88" y="226.24" width="29.14" height="120.19" fill="#c6b495"/><rect x="338.78" y="226.24" width="29.14" height="120.19" fill="#c6b495"/><circle cx="251.43" cy="161.74" r="17.88" fill="#fce9c3"/><path d="M396.9,204.22H115.1a4,4,0,0,1-4-4v-25.6a4,4,0,0,1,2.37-3.65L250.11,109.9a4,4,0,0,1,3.19,0l145.15,61.07a4,4,0,0,1,2.45,3.69v25.6A4,4,0,0,1,396.9,204.22Zm-277.8-8H392.9V177.28L251.79,117.91,119.1,177.21Z" fill="#181028"/><path d="M382.22,230.24H129.78a4,4,0,0,1-4-4v-26a4,4,0,0,1,4-4H382.22a4,4,0,0,1,4,4v26A4,4,0,0,1,382.22,230.24Zm-248.44-8H378.22v-18H133.78Z" fill="#181028"/><path d="M382.22,376.44H129.78a4,4,0,0,1-4-4v-26a4,4,0,0,1,4-4H382.22a4,4,0,0,1,4,4v26A4,4,0,0,1,382.22,376.44Zm-248.44-8H378.22v-18H133.78Z" fill="#181028"/><path d="M405,402.45H107a4,4,0,0,1-4-4v-26a4,4,0,0,1,4-4H405a4,4,0,0,1,4,4v26A4,4,0,0,1,405,402.45Zm-294-8H401v-18H111Z" fill="#181028"/><path d="M173.22,350.42H144.08a4,4,0,0,1-4-4V226.24a4,4,0,0,1,4-4h29.14a4,4,0,0,1,4,4V346.42A4,4,0,0,1,173.22,350.42Zm-25.14-8h21.14V230.24H148.08Z" fill="#181028"/><path d="M238.12,350.42H209a4,4,0,0,1-4-4V226.24a4,4,0,0,1,4-4h29.14a4,4,0,0,1,4,4V346.42A4,4,0,0,1,238.12,350.42Zm-25.14-8h21.14V230.24H213Z" fill="#181028"/><path d="M303,350.42H273.88a4,4,0,0,1-4-4V226.24a4,4,0,0,1,4-4H303a4,4,0,0,1,4,4V346.42A4,4,0,0,1,303,350.42Zm-25.14-8H299V230.24H277.88Z" fill="#181028"/><path d="M367.92,350.42H338.78a4,4,0,0,1-4-4V226.24a4,4,0,0,1,4-4h29.14a4,4,0,0,1,4,4V346.42A4,4,0,0,1,367.92,350.42Zm-25.14-8h21.14V230.24H342.78Z" fill="#181028"/><path d="M251.43,183.62a21.88,21.88,0,1,1,21.88-21.88A21.9,21.9,0,0,1,251.43,183.62Zm0-35.76a13.88,13.88,0,1,0,13.88,13.88A13.89,13.89,0,0,0,251.43,147.86Z" fill="#181028"/></svg>