<svg id="e3c05a5c-6fd2-48ae-a61a-22aea751c008" data-name="Layer 2" xmlns="http://www.w3.org/2000/svg" viewBox="0 0 512 512"><rect x="135.39" y="254" width="251.41" height="143.35" transform="translate(-50.31 47.72) rotate(-9.53)" fill="#fff"/><polygon points="396.93 375.55 148.99 417.17 373.2 234.18 396.93 375.55" fill="#dfe0da"/><polygon points="125.26 275.8 115.07 215.13 175.73 227.27 182.27 266.23 125.26 275.8" fill="#5e698e"/><rect x="177.66" y="210.97" width="193.6" height="39.5" transform="translate(-34.41 48.62) rotate(-9.53)" fill="#fff"/><polygon points="344.12 128.79 323.63 94.83 115.07 215.13 175.55 226.23 344.12 128.79" fill="#fff"/><path d="M149,421.17a4,4,0,0,1-3.94-3.34L121.31,276.46a4,4,0,0,1,3.28-4.6l247.94-41.63a4,4,0,0,1,4.61,3.29l23.73,141.36a4,4,0,0,1-3.28,4.61L149.65,421.11A3.79,3.79,0,0,1,149,421.17ZM129.86,279.08l22.41,133.48,240.05-40.3L369.91,238.79Z" fill="#181028"/><path d="M125.26,279.8a4,4,0,0,1-2.32-.74,4,4,0,0,1-1.63-2.6l-10.18-60.67a4,4,0,0,1,4.73-4.58l60.65,12.14a4,4,0,0,1,3.16,3.26l6.54,39a4,4,0,0,1-3.28,4.6l-57,9.58A4.89,4.89,0,0,1,125.26,279.8ZM120,220.19l8.56,51L177.66,263l-5.42-32.3Z" fill="#181028"/><path d="M182.26,270.23a4,4,0,0,1-.65-7.94l187-31.39-5.22-31.07-187,31.39a4,4,0,1,1-1.32-7.89L366,191.28a4,4,0,0,1,4.61,3.28l6.54,39a4,4,0,0,1-3.28,4.6L182.93,270.17A3.79,3.79,0,0,1,182.26,270.23Z" fill="#181028"/><polygon points="373.2 234.18 335.36 240.53 308.66 204.96 346.49 198.61 373.2 234.18" fill="#181028"/><polygon points="306.73 245.34 268.9 251.69 242.19 216.12 280.02 209.76 306.73 245.34" fill="#181028"/><polygon points="240.27 256.49 202.43 262.85 175.73 227.27 213.56 220.92 240.27 256.49" fill="#181028"/><path d="M175.56,230.23a4,4,0,0,1-2-7.47l165-95.4-16.36-27.1L117.07,218.6a4,4,0,0,1-4-6.93L321.63,91.37a4,4,0,0,1,5.43,1.39l20.48,34a4,4,0,0,1,.45,3.06,4,4,0,0,1-1.87,2.47L177.55,229.69A4,4,0,0,1,175.56,230.23Z" fill="#181028"/><polygon points="323.63 94.83 290.53 113.93 293.36 158.06 326.47 138.97 323.63 94.83" fill="#181028"/><polygon points="265.47 128.38 232.36 147.48 235.2 191.61 268.31 172.52 265.47 128.38" fill="#181028"/><polygon points="207.3 161.93 174.19 181.03 177.03 225.16 210.14 206.07 207.3 161.93" fill="#181028"/><path d="M175.05,328.28a4,4,0,0,1-.66-7.95l165.92-27.85a4,4,0,1,1,1.33,7.88L175.71,328.22A3.68,3.68,0,0,1,175.05,328.28Z" fill="#181028"/><path d="M182.33,371.69a4,4,0,0,1-.65-7.95L347.6,335.89a4,4,0,1,1,1.32,7.89L183,371.63A3.79,3.79,0,0,1,182.33,371.69Z" fill="#181028"/></svg>