<svg id="e94e10e3-de9b-4aeb-9619-2c6ae6df9b03" data-name="Layer 2" xmlns="http://www.w3.org/2000/svg" viewBox="0 0 512 512"><path d="M256,113.12A139.58,139.58,0,0,0,149.26,342.65c-5.68,22.47-20.08,46.59-32.85,56.23A780.73,780.73,0,0,0,195,378.28a139.6,139.6,0,1,0,61-265.16Z" fill="#fcb23a"/><path d="M130.15,313.14c1.66,3.45,3.45,6.83,5.38,10.11.23-.81.45-1.62.65-2.42Q133,317.09,130.15,313.14Z" fill="#e58333"/><path d="M368.79,170.47a139.64,139.64,0,0,1-186.88,186c-15.5,5-30.22,9.05-42.66,12.25-6.65,13-15,24.29-22.84,30.17A780.73,780.73,0,0,0,195,378.28a139.6,139.6,0,0,0,173.8-207.81Z" fill="#e58333"/><path d="M116.41,402.88a4,4,0,0,1-2.41-7.19c11.9-9,25.22-31.56,30.87-52.07a143.66,143.66,0,0,1-32.46-90.91c0-79.18,64.41-143.59,143.59-143.59s143.59,64.41,143.59,143.59S335.18,396.3,256,396.3a142.21,142.21,0,0,1-61.31-13.72,795,795,0,0,1-77.51,20.23A4.08,4.08,0,0,1,116.41,402.88ZM256,117.12c-74.76,0-135.59,60.82-135.59,135.59a135.64,135.64,0,0,0,31.91,87.36,4,4,0,0,1,.82,3.56c-4.39,17.33-13.89,35.93-24.22,48.46,14.3-3.25,38.57-9.21,64.85-17.62a4,4,0,0,1,3,.22A134.28,134.28,0,0,0,256,388.3c74.76,0,135.59-60.83,135.59-135.59S330.76,117.12,256,117.12Z" fill="#181028"/><path d="M202.35,215.31q0-10.19,6.55-20.65T228,177.33q12.54-6.87,29.29-6.86,15.56,0,27.47,5.74a44.57,44.57,0,0,1,18.4,15.61,38.34,38.34,0,0,1,6.49,21.46,33.22,33.22,0,0,1-3.7,16,49.25,49.25,0,0,1-8.8,11.86q-5.1,5-18.3,16.79a74,74,0,0,0-5.84,5.85,24,24,0,0,0-3.28,4.61,22.81,22.81,0,0,0-1.66,4.19q-.58,2.08-1.77,7.35-2,11.16-12.77,11.15a13.06,13.06,0,0,1-9.39-3.64q-3.81-3.65-3.8-10.84a38,38,0,0,1,10.19-27.2A168.33,168.33,0,0,1,263,237.52q6.87-6,9.93-9.06a30.81,30.81,0,0,0,5.15-6.82,16.51,16.51,0,0,0,2.09-8.15A19,19,0,0,0,273.76,199q-6.39-5.91-16.47-5.91-11.81,0-17.38,6t-9.45,17.54q-3.65,12.14-13.84,12.13a13.65,13.65,0,0,1-10.14-4.24C203.73,221.66,202.35,218.61,202.35,215.31Zm52.36,117.6a16.84,16.84,0,0,1-11.42-4.24q-4.89-4.23-4.89-11.85a15.32,15.32,0,0,1,4.72-11.38,16,16,0,0,1,11.59-4.61,15.75,15.75,0,0,1,16,16q0,7.5-4.83,11.8A16.3,16.3,0,0,1,254.71,332.91Z" fill="#fff"/></svg>