<svg id="ade9dc15-032f-4704-8fbd-ea13348cbf0a" data-name="Layer 2" xmlns="http://www.w3.org/2000/svg" viewBox="0 0 512 512"><circle cx="256" cy="256" r="155.3" fill="#ff8c3e"/><path d="M192.71,311.9a154.38,154.38,0,0,1-20.32-20.42L112,314.19a154.71,154.71,0,0,0,71.24,79A150.37,150.37,0,0,0,192.71,311.9Z" fill="#ba4d1c"/><path d="M167.24,284.87a156.34,156.34,0,0,1-28.12-66.24A151.87,151.87,0,0,0,111,200.47a154.7,154.7,0,0,0-1.77,106.22Z" fill="#ba4d1c"/><path d="M114,193.05a161.28,161.28,0,0,1,23.58,14.31,154.83,154.83,0,0,1,5.52-58.08A155.68,155.68,0,0,0,114,193.05Z" fill="#ba4d1c"/><path d="M279.39,347.48a156.08,156.08,0,0,1-77.67-28.61,158.38,158.38,0,0,1-11.29,77.9,154.77,154.77,0,0,0,110.47,7.89Z" fill="#ba4d1c"/><path d="M388,315c1.49.76,3,1.5,4.5,2.21a4,4,0,0,1-1.71,7.63,4.07,4.07,0,0,1-1.69-.38q-4.21-2-8.26-4.18A155.88,155.88,0,0,1,288.12,348l20.31,54c0,.06,0,.12.05.18.73-.26,1.46-.51,2.19-.79a155.06,155.06,0,0,0,94.45-101.95A154.26,154.26,0,0,1,388,315Z" fill="#ba4d1c"/><path d="M256.17,415.31c-64.46,0-125.28-39.42-149.28-103.24-30.92-82.21,10.82-174.26,93-205.18s174.26,10.82,205.18,93-10.82,174.26-93,205.18A158.52,158.52,0,0,1,256.17,415.31Zm-.1-310.69a151.25,151.25,0,0,0-53.33,9.76C124.65,143.75,85,231.17,114.38,309.26a151.31,151.31,0,0,0,194.88,88.36C387.35,368.25,427,280.83,397.62,202.74h0a151.6,151.6,0,0,0-141.55-98.12Z" fill="#181028"/><path d="M396.74,322.83a3.89,3.89,0,0,1-1.69-.38A159.31,159.31,0,0,1,317.28,113.3a4,4,0,1,1,7.31,3.27,151.31,151.31,0,0,0,73.85,198.64,4,4,0,0,1-1.7,7.62Z" fill="#181028"/><path d="M191.53,400a4,4,0,0,1-1.6-.33,4,4,0,0,1-2.06-5.27,151.32,151.32,0,0,0-75.34-198.09,4,4,0,0,1,3.34-7.26A159.31,159.31,0,0,1,195.2,397.61,4,4,0,0,1,191.53,400Z" fill="#181028"/><path d="M310.67,405.36a4,4,0,0,1-3.75-2.59L197.59,112.05a4,4,0,1,1,7.49-2.82L314.41,400a4,4,0,0,1-2.34,5.16A4.06,4.06,0,0,1,310.67,405.36Z" fill="#181028"/><path d="M110.64,314.67a4,4,0,0,1-1.41-7.75L400,197.59a4,4,0,1,1,2.82,7.49L112.05,314.41A4.13,4.13,0,0,1,110.64,314.67Z" fill="#181028"/></svg>