<svg id="e39abe49-60e0-4be3-a8cc-f447a5d1c5bb" data-name="Layer 2" xmlns="http://www.w3.org/2000/svg" viewBox="0 0 512 512"><path d="M185.75,184h0a50.23,50.23,0,0,0-68.4,19.14h0a50.23,50.23,0,0,0,19.14,68.4h0L224,320.82l49.26-87.54h0a50.21,50.21,0,0,0-19.14-68.4h0A50.23,50.23,0,0,0,185.75,184Z" fill="#ff3943"/><path d="M254.15,164.88h0a50.1,50.1,0,0,0-43.81-2.63,50.22,50.22,0,0,1,14.84,65.69h0l-40,71L224,320.82l49.26-87.54h0A50.21,50.21,0,0,0,254.15,164.88Z" fill="#d12839"/><path d="M224,324.82a4,4,0,0,1-2-.51l-87.54-49.26a54.23,54.23,0,0,1,49.75-96.29,54.22,54.22,0,0,1,92.5,56.48l-49.26,87.54A4,4,0,0,1,224,324.82ZM161.2,181.57a46.22,46.22,0,0,0-22.75,86.5l84.06,47.3,47.3-84.05A46.23,46.23,0,0,0,189.24,186a4,4,0,0,1-5.45,1.53A45.87,45.87,0,0,0,161.2,181.57Z" fill="#181028"/><path d="M331,237.85h0a50.23,50.23,0,0,0-66-26.22h0a50.22,50.22,0,0,0-26.21,66h0l39.79,92.23,92.23-39.79h0a50.22,50.22,0,0,0,26.22-66h0A50.22,50.22,0,0,0,331,237.85Z" fill="#ff3943"/><path d="M397,264.07h0a50.11,50.11,0,0,0-33.26-28.64,50.23,50.23,0,0,1-28,61.25h0L260.89,329l17.65,40.9,92.23-39.79h0A50.22,50.22,0,0,0,397,264.07Z" fill="#d12839"/><path d="M278.54,373.87a4,4,0,0,1-3.67-2.41l-39.8-92.23A54.23,54.23,0,0,1,333,232.77a54.22,54.22,0,0,1,39.36,101l-92.23,39.79A3.83,3.83,0,0,1,278.54,373.87Zm6.31-162.37a46.24,46.24,0,0,0-42.43,64.56l38.21,88.55,88.56-38.2a46.23,46.23,0,1,0-36.63-84.89,4,4,0,0,1-5.26-2.09,46.35,46.35,0,0,0-42.45-27.93Z" fill="#181028"/><path d="M330.25,127.53h0a23.13,23.13,0,0,0-30.41-12.08h0a23.14,23.14,0,0,0-12.08,30.41h0l18.34,42.49L348.59,170h0a23.14,23.14,0,0,0,12.08-30.41h0A23.14,23.14,0,0,0,330.25,127.53Z" fill="#ff3943"/><path d="M360.67,139.61h0a23.12,23.12,0,0,0-15.33-13.2,23.13,23.13,0,0,1-12.89,28.22h0L298,169.51l8.14,18.84L348.59,170h0A23.14,23.14,0,0,0,360.67,139.61Z" fill="#d12839"/><path d="M306.1,192.35a4,4,0,0,1-3.68-2.41l-18.33-42.49a27.14,27.14,0,0,1,48.12-24.84A27.14,27.14,0,0,1,364.34,138a27.17,27.17,0,0,1-14.17,35.67L307.68,192A4,4,0,0,1,306.1,192.35ZM309,117.56a19.13,19.13,0,0,0-17.54,26.72l16.74,38.82L347,166.35a19.17,19.17,0,0,0,10-25.16,19.15,19.15,0,0,0-25.15-10,4,4,0,0,1-5.26-2.09A19.18,19.18,0,0,0,309,117.56Z" fill="#181028"/><path d="M154.9,341.08h0a23.15,23.15,0,0,0-28.69,15.75h0A23.15,23.15,0,0,0,142,385.52h0l44.43,12.93L199.33,354h0a23.15,23.15,0,0,0-15.75-28.69h0A23.14,23.14,0,0,0,154.9,341.08Z" fill="#ff3943"/><path d="M183.58,325.33h0a23.1,23.1,0,0,0-19.93,3.41,23.13,23.13,0,0,1,13.53,27.92h0l-10.49,36,19.7,5.74L199.33,354h0A23.15,23.15,0,0,0,183.58,325.33Z" fill="#d12839"/><path d="M186.4,402.45a3.84,3.84,0,0,1-1.12-.16l-44.44-12.93a27.14,27.14,0,0,1,11.51-52.92,27.14,27.14,0,0,1,50.82,18.7l-12.93,44.43a4,4,0,0,1-1.92,2.39A4.06,4.06,0,0,1,186.4,402.45Zm-38-58.29a19.14,19.14,0,0,0-5.36,37.52l40.59,11.81,11.82-40.59a19.14,19.14,0,1,0-36.75-10.7,4,4,0,0,1-5,2.72A19.41,19.41,0,0,0,148.44,344.16Z" fill="#181028"/></svg>