<svg id="ac5059d3-7f44-44f4-b524-adbb2aa80716" data-name="Layer 2" xmlns="http://www.w3.org/2000/svg" viewBox="0 0 512 512"><path d="M398,331.53h0a16.71,16.71,0,0,0-21.41-10l-69,28.68h0a16.71,16.71,0,0,0-14.05-25.77H246.77l-2.24-2.93a40.5,40.5,0,0,0-32.25-16H170.94v70.41l78.93,39.89L388,353A16.72,16.72,0,0,0,398,331.53Z" fill="#f9caaa"/><rect x="112.97" y="294.91" width="57.97" height="100.7" fill="#25619e"/><rect x="112.97" y="294.91" width="57.97" height="57.97" fill="#3fa4ef"/><path d="M249.87,419.8a4,4,0,0,1-1.8-.43l-78.93-39.89a4,4,0,0,1-2.2-3.57V305.5a4,4,0,0,1,4-4h41.34a44.81,44.81,0,0,1,35.44,17.56l1,1.36h44.76a20.74,20.74,0,0,1,20.72,20.72c0,.67,0,1.33-.09,2l60.93-25.32.17-.06a20.72,20.72,0,0,1,14.28,38.9l-138,62.79A4,4,0,0,1,249.87,419.8Zm-74.93-46.35,75,37.91,136.39-62.05a1.48,1.48,0,0,1,.29-.12,12.72,12.72,0,0,0-8.59-23.95l-67.87,28.2a20.72,20.72,0,0,1-16.67,8.42H246.77a4,4,0,1,1,0-8h46.74a12.74,12.74,0,0,0,10.68-5.81l0-.06a12.72,12.72,0,0,0-10.72-19.57H246.77a4,4,0,0,1-3.19-1.58l-2.23-2.93a36.74,36.74,0,0,0-29.07-14.41H174.94Z" fill="#181028"/><path d="M170.94,399.61H113a4,4,0,0,1-4-4V294.91a4,4,0,0,1,4-4h58a4,4,0,0,1,4,4v100.7A4,4,0,0,1,170.94,399.61Zm-54-8h50v-92.7H117Z" fill="#181028"/><path d="M280.11,114.39h0a62,62,0,0,0-87.6.09h0a62,62,0,0,0,.09,87.61h0l87.69,87.51,87.51-87.7h0a61.93,61.93,0,0,0-.09-87.6h0A62,62,0,0,0,280.11,114.39Z" fill="#ff3943"/><path d="M367.71,114.3h0a61.78,61.78,0,0,0-51.18-17.63,61.93,61.93,0,0,1-4.12,83h0l-71,71.17,38.89,38.81,87.51-87.7h0A61.93,61.93,0,0,0,367.71,114.3Z" fill="#d12839"/><path d="M280.29,293.6a4,4,0,0,1-2.82-1.17l-87.7-87.51A65.95,65.95,0,0,1,236.28,92.3h.08a65.45,65.45,0,0,1,43.74,16.59,65.95,65.95,0,0,1,90.53,95.84l-87.51,87.69a4,4,0,0,1-2.82,1.18ZM236.35,100.32a57.93,57.93,0,0,0-40.93,98.94l84.87,84.68L365,199.08a57.94,57.94,0,0,0-41-98.88h-.06a57.57,57.57,0,0,0-41,17,4,4,0,0,1-5.66,0A57.79,57.79,0,0,0,236.35,100.32Z" fill="#181028"/></svg>