<svg id="f411328a-d635-47aa-9641-b4e10c81fe37" data-name="Layer 2" xmlns="http://www.w3.org/2000/svg" viewBox="0 0 512 512"><path d="M286.88,152.35l89.88,44.16-7.61-89.13" fill="#3fa4ef"/><path d="M286.88,152.35,265.11,243l-68-63.6" fill="#ff3943"/><path d="M104.51,194.1,166,271l31.16-91.61" fill="#fcb23a"/><path d="M92.2,199.23a4,4,0,0,1-.2-8c.42,0,43.61-2.39,101.2-16.06,53-12.58,129.51-37.58,192.63-85.25a4,4,0,1,1,4.82,6.39C326.37,144.85,248.71,170.24,194.88,183c-58.27,13.81-102,16.2-102.47,16.22Z" fill="#181028"/><path d="M166,275a4,4,0,0,1-3.12-1.5l-61.45-76.94a4,4,0,1,1,6.25-5l56.89,71.22,28.8-84.69a4,4,0,1,1,7.58,2.58l-31.16,91.61A4,4,0,0,1,166,275Z" fill="#181028"/><path d="M265.11,247a4,4,0,0,1-2.73-1.08l-68-63.6a4,4,0,1,1,5.46-5.84l63,58.9,20.17-84a4,4,0,1,1,7.78,1.86L269,244a4,4,0,0,1-2.74,2.9A4.16,4.16,0,0,1,265.11,247Z" fill="#181028"/><path d="M376.76,200.51a3.89,3.89,0,0,1-1.76-.41l-89.88-44.16a4,4,0,1,1,3.52-7.18l83.53,41-7-82.08a4,4,0,1,1,8-.68l7.61,89.13a4,4,0,0,1-4,4.34Z" fill="#181028"/><path d="M307.4,303.16l77.08,63.93,13.42-88.45" fill="#ff3943"/><path d="M307.4,303.16l-42.34,83.07-51.27-77.71" fill="#fcb23a"/><path d="M120.32,301.16l41.78,89.16,51.69-81.8" fill="#3fa4ef"/><path d="M212.83,311.48h-2c-59.88-.19-103-8.08-103.43-8.16a4,4,0,1,1,1.47-7.86c.42.08,43,7.85,102.16,8,54.5.12,134.69-6.31,207.21-37.91a4,4,0,0,1,3.2,7.33C348.46,304.69,268.1,311.48,212.83,311.48Z" fill="#181028"/><path d="M162.1,394.32h-.25a4,4,0,0,1-3.37-2.3L116.7,302.86a4,4,0,1,1,7.24-3.39L162.63,382l47.78-75.62a4,4,0,0,1,6.77,4.27l-51.69,81.8A4,4,0,0,1,162.1,394.32Z" fill="#181028"/><path d="M265.06,390.23a4,4,0,0,1-3.34-1.79l-51.26-77.72a4,4,0,0,1,6.67-4.41l47.49,72,39.22-77A4,4,0,0,1,311,305l-42.35,83.07a4,4,0,0,1-3.34,2.18Z" fill="#181028"/><path d="M384.48,371.09a4,4,0,0,1-2.55-.92l-77.08-63.93a4,4,0,1,1,5.11-6.16l71.63,59.42L394,278a4,4,0,0,1,7.91,1.2l-13.42,88.45a4,4,0,0,1-2.53,3.14A3.93,3.93,0,0,1,384.48,371.09Z" fill="#181028"/></svg>